<svg id="svg" version="1.1" xmlns="http://www.w3.org/2000/svg" xmlns:xlink="http://www.w3.org/1999/xlink" width="400" height="400" viewBox="0, 0, 400,400"><g id="svgg"><path id="path0" d="M113.745 19.000 C 113.583 19.420,112.928 19.600,111.557 19.600 C 110.481 19.600,109.600 19.780,109.600 20.000 C 109.600 20.220,108.964 20.400,108.187 20.400 C 107.301 20.400,106.689 20.623,106.545 21.000 C 106.418 21.330,105.884 21.600,105.357 21.600 C 104.831 21.600,104.400 21.780,104.400 22.000 C 104.400 22.220,103.950 22.400,103.400 22.400 C 102.778 22.400,102.400 22.627,102.400 23.000 C 102.400 23.373,102.022 23.600,101.400 23.600 C 100.850 23.600,100.400 23.780,100.400 24.000 C 100.400 24.220,100.173 24.400,99.896 24.400 C 99.619 24.400,98.936 24.822,98.379 25.339 C 97.822 25.855,97.194 26.350,96.983 26.439 C 95.823 26.927,93.609 28.670,93.605 29.100 C 93.602 29.375,93.407 29.600,93.171 29.600 C 92.618 29.600,91.600 30.618,91.600 31.171 C 91.600 31.407,91.407 31.600,91.171 31.600 C 90.494 31.600,89.035 33.432,88.542 34.900 C 88.412 35.285,88.148 35.600,87.953 35.600 C 87.759 35.600,87.600 35.788,87.600 36.017 C 87.600 36.409,87.287 36.862,86.100 38.185 C 85.825 38.492,85.600 39.116,85.600 39.571 C 85.600 40.041,85.340 40.400,85.000 40.400 C 84.670 40.400,84.400 40.672,84.400 41.005 C 84.400 41.772,83.555 43.301,82.900 43.720 C 82.625 43.896,82.400 44.391,82.400 44.820 C 82.400 45.249,82.220 45.600,82.000 45.600 C 81.780 45.600,81.600 46.050,81.600 46.600 C 81.600 47.150,81.395 47.600,81.144 47.600 C 80.543 47.600,79.629 48.828,79.613 49.657 C 79.606 50.019,79.330 50.418,79.000 50.545 C 78.670 50.671,78.400 51.141,78.400 51.587 C 78.400 52.034,78.220 52.400,78.000 52.400 C 77.780 52.400,77.600 52.670,77.600 53.000 C 77.600 53.330,77.423 53.600,77.208 53.600 C 76.992 53.600,76.702 54.050,76.564 54.600 C 76.426 55.150,76.153 55.600,75.957 55.600 C 75.760 55.600,75.600 56.050,75.600 56.600 C 75.600 57.222,75.373 57.600,75.000 57.600 C 74.670 57.600,74.400 57.941,74.400 58.358 C 74.400 58.775,73.953 59.540,73.407 60.058 C 72.861 60.576,72.411 61.315,72.407 61.700 C 72.403 62.085,72.220 62.400,72.000 62.400 C 71.780 62.400,71.600 62.850,71.600 63.400 C 71.600 63.950,71.375 64.401,71.100 64.403 C 70.595 64.406,69.600 66.154,69.600 67.037 C 69.600 67.300,69.330 67.618,69.000 67.745 C 68.670 67.871,68.400 68.341,68.400 68.787 C 68.400 69.234,68.220 69.600,68.000 69.600 C 67.780 69.600,67.600 70.050,67.600 70.600 C 67.600 71.222,67.373 71.600,67.000 71.600 C 66.670 71.600,66.400 71.870,66.400 72.200 C 66.400 72.530,66.220 72.800,66.000 72.800 C 65.780 72.800,65.600 73.141,65.600 73.557 C 65.600 73.974,65.330 74.418,65.000 74.545 C 64.670 74.671,64.400 75.141,64.400 75.587 C 64.400 76.034,64.220 76.400,64.000 76.400 C 63.780 76.400,63.600 76.850,63.600 77.400 C 63.600 78.022,63.373 78.400,63.000 78.400 C 62.670 78.400,62.400 78.670,62.400 79.000 C 62.400 79.330,62.220 79.600,62.000 79.600 C 61.780 79.600,61.600 80.050,61.600 80.600 C 61.600 81.222,61.373 81.600,61.000 81.600 C 60.627 81.600,60.400 81.978,60.400 82.600 C 60.400 83.150,60.220 83.600,60.000 83.600 C 59.780 83.600,59.600 83.792,59.600 84.027 C 59.600 84.261,59.150 85.043,58.600 85.764 C 58.050 86.486,57.600 87.354,57.600 87.695 C 57.600 88.036,57.330 88.418,57.000 88.545 C 56.670 88.671,56.400 89.141,56.400 89.587 C 56.400 90.034,56.220 90.400,56.000 90.400 C 55.780 90.400,55.600 90.670,55.600 91.000 C 55.600 91.330,55.423 91.600,55.208 91.600 C 54.992 91.600,54.702 92.050,54.564 92.600 C 54.426 93.150,54.153 93.600,53.957 93.600 C 53.760 93.600,53.600 94.050,53.600 94.600 C 53.600 95.222,53.373 95.600,53.000 95.600 C 52.662 95.600,52.400 95.957,52.400 96.417 C 52.400 96.867,51.950 97.720,51.400 98.313 C 50.850 98.907,50.400 99.619,50.400 99.896 C 50.400 100.173,50.220 100.400,50.000 100.400 C 49.780 100.400,49.600 100.850,49.600 101.400 C 49.600 102.022,49.373 102.400,49.000 102.400 C 48.627 102.400,48.400 102.778,48.400 103.400 C 48.400 103.950,48.220 104.400,48.000 104.400 C 47.780 104.400,47.600 104.651,47.600 104.957 C 47.600 105.264,47.330 105.618,47.000 105.745 C 46.670 105.871,46.400 106.341,46.400 106.787 C 46.400 107.234,46.220 107.600,46.000 107.600 C 45.780 107.600,45.600 108.050,45.600 108.600 C 45.600 109.153,45.368 109.600,45.080 109.600 C 44.795 109.600,44.339 110.213,44.068 110.962 C 43.797 111.711,43.311 112.425,42.988 112.549 C 42.665 112.673,42.400 113.141,42.400 113.587 C 42.400 114.034,42.220 114.400,42.000 114.400 C 41.780 114.400,41.600 114.850,41.600 115.400 C 41.600 115.950,41.375 116.401,41.100 116.403 C 40.595 116.406,39.600 118.154,39.600 119.037 C 39.600 119.300,39.330 119.618,39.000 119.745 C 38.670 119.871,38.400 120.341,38.400 120.787 C 38.400 121.234,38.220 121.600,38.000 121.600 C 37.780 121.600,37.600 122.050,37.600 122.600 C 37.600 123.222,37.373 123.600,37.000 123.600 C 36.670 123.600,36.400 123.870,36.400 124.200 C 36.400 124.530,36.220 124.800,36.000 124.800 C 35.780 124.800,35.600 125.141,35.600 125.557 C 35.600 125.974,35.330 126.418,35.000 126.545 C 34.670 126.671,34.400 127.141,34.400 127.587 C 34.400 128.034,34.220 128.400,34.000 128.400 C 33.780 128.400,33.600 128.850,33.600 129.400 C 33.600 129.950,33.375 130.401,33.100 130.403 C 32.584 130.406,31.600 132.161,31.600 133.080 C 31.600 133.366,31.330 133.600,31.000 133.600 C 30.627 133.600,30.400 133.978,30.400 134.600 C 30.400 135.150,30.220 135.600,30.000 135.600 C 29.780 135.600,29.600 136.050,29.600 136.600 C 29.600 137.222,29.373 137.600,29.000 137.600 C 28.670 137.600,28.400 137.870,28.400 138.200 C 28.400 138.530,28.220 138.800,28.000 138.800 C 27.780 138.800,27.600 139.141,27.600 139.557 C 27.600 139.974,27.330 140.418,27.000 140.545 C 26.670 140.671,26.400 141.141,26.400 141.587 C 26.400 142.034,26.220 142.400,26.000 142.400 C 25.780 142.400,25.600 142.850,25.600 143.400 C 25.600 144.022,25.373 144.400,25.000 144.400 C 24.670 144.400,24.400 144.670,24.400 145.000 C 24.400 145.330,24.220 145.600,24.000 145.600 C 23.780 145.600,23.600 146.050,23.600 146.600 C 23.600 147.222,23.373 147.600,23.000 147.600 C 22.627 147.600,22.400 147.978,22.400 148.600 C 22.400 149.150,22.220 149.600,22.000 149.600 C 21.780 149.600,21.597 149.915,21.593 150.300 C 21.589 150.685,21.139 151.424,20.593 151.942 C 20.047 152.460,19.600 153.206,19.600 153.599 C 19.600 153.993,19.330 154.418,19.000 154.545 C 18.670 154.671,18.400 155.141,18.400 155.587 C 18.400 156.034,18.220 156.400,18.000 156.400 C 17.780 156.400,17.600 156.766,17.600 157.213 C 17.600 157.659,17.330 158.129,17.000 158.255 C 16.670 158.382,16.400 158.736,16.400 159.043 C 16.400 159.349,16.220 159.600,16.000 159.600 C 15.780 159.600,15.600 160.050,15.600 160.600 C 15.600 161.222,15.373 161.600,15.000 161.600 C 14.627 161.600,14.400 161.978,14.400 162.600 C 14.400 163.150,14.220 163.600,14.000 163.600 C 13.780 163.600,13.600 164.050,13.600 164.600 C 13.600 165.222,13.373 165.600,13.000 165.600 C 12.670 165.600,12.400 165.870,12.400 166.200 C 12.400 166.530,12.220 166.800,12.000 166.800 C 11.780 166.800,11.600 167.141,11.600 167.557 C 11.600 167.974,11.330 168.418,11.000 168.545 C 10.670 168.671,10.400 169.141,10.400 169.587 C 10.400 170.034,10.220 170.400,10.000 170.400 C 9.780 170.400,9.600 170.850,9.600 171.400 C 9.600 172.022,9.373 172.400,9.000 172.400 C 8.670 172.400,8.400 172.672,8.400 173.005 C 8.400 173.772,7.555 175.301,6.900 175.720 C 6.625 175.896,6.400 176.391,6.400 176.820 C 6.400 177.249,6.220 177.600,6.000 177.600 C 5.780 177.600,5.600 178.146,5.600 178.813 C 5.600 179.521,5.351 180.121,5.000 180.255 C 4.609 180.405,4.400 181.028,4.400 182.043 C 4.400 182.899,4.220 183.600,4.000 183.600 C 3.779 183.600,3.600 184.650,3.600 185.951 C 3.600 187.553,3.409 188.461,3.000 188.800 C 2.519 189.199,2.400 190.403,2.400 194.849 C 2.400 199.517,2.495 200.400,3.000 200.400 C 3.472 200.400,3.600 200.956,3.600 203.000 C 3.600 204.467,3.774 205.600,4.000 205.600 C 4.220 205.600,4.400 206.298,4.400 207.151 C 4.400 208.042,4.655 208.914,5.000 209.200 C 5.330 209.474,5.600 210.126,5.600 210.649 C 5.600 211.172,5.780 211.600,6.000 211.600 C 6.220 211.600,6.400 211.966,6.400 212.413 C 6.400 212.859,6.670 213.329,7.000 213.455 C 7.330 213.582,7.600 214.039,7.600 214.471 C 7.600 214.904,7.825 215.508,8.100 215.815 C 9.439 217.308,10.400 218.971,10.400 219.795 C 10.400 220.128,10.670 220.400,11.000 220.400 C 11.373 220.400,11.600 220.778,11.600 221.400 C 11.600 221.950,11.780 222.400,12.000 222.400 C 12.220 222.400,12.400 222.751,12.400 223.180 C 12.400 223.609,12.625 224.104,12.900 224.280 C 13.555 224.699,14.400 226.228,14.400 226.995 C 14.400 227.328,14.670 227.600,15.000 227.600 C 15.373 227.600,15.600 227.978,15.600 228.600 C 15.600 229.150,15.780 229.600,16.000 229.600 C 16.220 229.600,16.400 229.966,16.400 230.413 C 16.400 230.859,16.639 231.317,16.932 231.429 C 17.224 231.541,17.708 232.256,18.007 233.017 C 18.305 233.777,18.786 234.400,19.075 234.400 C 19.368 234.400,19.600 234.841,19.600 235.400 C 19.600 235.950,19.780 236.400,20.000 236.400 C 20.220 236.400,20.400 236.850,20.400 237.400 C 20.400 238.022,20.627 238.400,21.000 238.400 C 21.330 238.400,21.600 238.634,21.600 238.920 C 21.600 239.839,22.584 241.594,23.100 241.597 C 23.375 241.599,23.600 242.050,23.600 242.600 C 23.600 243.150,23.780 243.600,24.000 243.600 C 24.220 243.600,24.400 243.966,24.400 244.413 C 24.400 244.859,24.639 245.317,24.932 245.429 C 25.224 245.541,25.708 246.256,26.007 247.017 C 26.305 247.777,26.786 248.400,27.075 248.400 C 27.368 248.400,27.600 248.841,27.600 249.400 C 27.600 249.950,27.780 250.400,28.000 250.400 C 28.220 250.400,28.400 250.751,28.400 251.180 C 28.400 251.609,28.625 252.104,28.900 252.280 C 29.555 252.699,30.400 254.228,30.400 254.995 C 30.400 255.328,30.670 255.600,31.000 255.600 C 31.373 255.600,31.600 255.978,31.600 256.600 C 31.600 257.150,31.780 257.600,32.000 257.600 C 32.220 257.600,32.403 257.915,32.407 258.300 C 32.411 258.685,32.861 259.424,33.407 259.942 C 33.953 260.460,34.400 261.225,34.400 261.642 C 34.400 262.059,34.670 262.400,35.000 262.400 C 35.373 262.400,35.600 262.778,35.600 263.400 C 35.600 263.950,35.780 264.400,36.000 264.400 C 36.220 264.400,36.400 264.766,36.400 265.213 C 36.400 265.659,36.670 266.129,37.000 266.255 C 37.330 266.382,37.600 266.736,37.600 267.043 C 37.600 267.349,37.780 267.600,38.000 267.600 C 38.220 267.600,38.400 268.050,38.400 268.600 C 38.400 269.222,38.627 269.600,39.000 269.600 C 39.373 269.600,39.600 269.978,39.600 270.600 C 39.600 271.150,39.780 271.600,40.000 271.600 C 40.220 271.600,40.400 271.827,40.400 272.104 C 40.400 272.381,40.850 273.093,41.400 273.687 C 41.950 274.280,42.400 275.133,42.400 275.583 C 42.400 276.043,42.662 276.400,43.000 276.400 C 43.373 276.400,43.600 276.778,43.600 277.400 C 43.600 277.950,43.760 278.400,43.957 278.400 C 44.153 278.400,44.426 278.850,44.564 279.400 C 44.702 279.950,44.992 280.400,45.208 280.400 C 45.423 280.400,45.600 280.670,45.600 281.000 C 45.600 281.330,45.780 281.600,46.000 281.600 C 46.220 281.600,46.400 281.966,46.400 282.413 C 46.400 282.859,46.670 283.329,47.000 283.455 C 47.330 283.582,47.600 284.039,47.600 284.471 C 47.600 284.904,47.825 285.508,48.100 285.815 C 49.287 287.138,49.600 287.591,49.600 287.983 C 49.600 288.212,49.780 288.400,50.000 288.400 C 50.220 288.400,50.400 288.850,50.400 289.400 C 50.400 290.022,50.627 290.400,51.000 290.400 C 51.373 290.400,51.600 290.778,51.600 291.400 C 51.600 291.950,51.780 292.400,52.000 292.400 C 52.220 292.400,52.400 292.676,52.400 293.013 C 52.400 293.349,52.670 293.729,53.000 293.855 C 53.330 293.982,53.600 294.426,53.600 294.843 C 53.600 295.259,53.780 295.600,54.000 295.600 C 54.220 295.600,54.400 295.966,54.400 296.413 C 54.400 296.859,54.670 297.329,55.000 297.455 C 55.330 297.582,55.600 298.007,55.600 298.401 C 55.600 298.794,56.047 299.540,56.593 300.058 C 57.139 300.576,57.589 301.315,57.593 301.700 C 57.597 302.085,57.780 302.400,58.000 302.400 C 58.220 302.400,58.400 302.850,58.400 303.400 C 58.400 304.022,58.627 304.400,59.000 304.400 C 59.330 304.400,59.600 304.634,59.600 304.920 C 59.600 305.839,60.584 307.594,61.100 307.597 C 61.375 307.599,61.600 308.050,61.600 308.600 C 61.600 309.150,61.780 309.600,62.000 309.600 C 62.220 309.600,62.400 309.966,62.400 310.413 C 62.400 310.859,62.639 311.317,62.932 311.429 C 63.224 311.541,63.708 312.256,64.007 313.017 C 64.305 313.777,64.786 314.400,65.075 314.400 C 65.368 314.400,65.600 314.841,65.600 315.400 C 65.600 315.950,65.780 316.400,66.000 316.400 C 66.220 316.400,66.400 316.751,66.400 317.180 C 66.400 317.609,66.625 318.104,66.900 318.280 C 67.555 318.699,68.400 320.228,68.400 320.995 C 68.400 321.328,68.670 321.600,69.000 321.600 C 69.373 321.600,69.600 321.978,69.600 322.600 C 69.600 323.150,69.780 323.600,70.000 323.600 C 70.220 323.600,70.400 323.827,70.400 324.104 C 70.400 324.381,70.850 325.093,71.400 325.687 C 71.950 326.280,72.400 327.133,72.400 327.583 C 72.400 328.043,72.662 328.400,73.000 328.400 C 73.373 328.400,73.600 328.778,73.600 329.400 C 73.600 329.950,73.760 330.400,73.957 330.400 C 74.153 330.400,74.426 330.850,74.564 331.400 C 74.702 331.950,74.992 332.400,75.208 332.400 C 75.423 332.400,75.600 332.670,75.600 333.000 C 75.600 333.330,75.780 333.600,76.000 333.600 C 76.220 333.600,76.400 333.966,76.400 334.413 C 76.400 334.859,76.670 335.329,77.000 335.455 C 77.330 335.582,77.606 335.981,77.613 336.343 C 77.629 337.172,78.543 338.400,79.144 338.400 C 79.395 338.400,79.600 338.850,79.600 339.400 C 79.600 339.950,79.780 340.400,80.000 340.400 C 80.220 340.400,80.400 340.850,80.400 341.400 C 80.400 342.022,80.627 342.400,81.000 342.400 C 81.330 342.400,81.600 342.634,81.600 342.920 C 81.600 343.839,82.584 345.594,83.100 345.597 C 83.375 345.599,83.600 346.050,83.600 346.600 C 83.600 347.150,83.780 347.600,84.000 347.600 C 84.220 347.600,84.400 347.827,84.400 348.104 C 84.400 348.381,84.850 349.093,85.400 349.687 C 85.950 350.280,86.400 351.133,86.400 351.583 C 86.400 352.043,86.662 352.400,87.000 352.400 C 87.346 352.400,87.600 352.761,87.600 353.253 C 87.600 353.722,88.230 354.700,89.000 355.426 C 89.770 356.152,90.400 356.938,90.400 357.173 C 90.400 357.408,90.593 357.600,90.829 357.600 C 91.382 357.600,92.400 358.618,92.400 359.171 C 92.400 359.407,92.593 359.600,92.829 359.600 C 93.382 359.600,94.400 360.618,94.400 361.171 C 94.400 361.407,94.588 361.600,94.817 361.600 C 95.047 361.600,95.720 362.050,96.313 362.600 C 96.907 363.150,97.619 363.600,97.896 363.600 C 98.173 363.600,98.400 363.780,98.400 364.000 C 98.400 364.220,98.651 364.400,98.957 364.400 C 99.264 364.400,99.618 364.670,99.745 365.000 C 99.871 365.330,100.341 365.600,100.787 365.600 C 101.234 365.600,101.600 365.780,101.600 366.000 C 101.600 366.220,102.050 366.400,102.600 366.400 C 103.222 366.400,103.600 366.627,103.600 367.000 C 103.600 367.373,103.978 367.600,104.600 367.600 C 105.150 367.600,105.600 367.780,105.600 368.000 C 105.600 368.220,106.211 368.400,106.957 368.400 C 107.795 368.400,108.403 368.630,108.545 369.000 C 108.689 369.377,109.301 369.600,110.187 369.600 C 110.964 369.600,111.600 369.780,111.600 370.000 C 111.600 370.255,114.986 370.400,120.957 370.400 C 128.906 370.400,130.349 370.490,130.545 371.000 C 130.895 371.913,258.194 371.913,258.545 371.000 C 258.743 370.482,260.745 370.400,273.187 370.400 C 282.529 370.400,287.600 370.259,287.600 370.000 C 287.600 369.780,288.416 369.600,289.413 369.600 C 290.655 369.600,291.298 369.411,291.455 369.000 C 291.582 368.670,292.116 368.400,292.643 368.400 C 293.169 368.400,293.600 368.220,293.600 368.000 C 293.600 367.780,294.146 367.600,294.813 367.600 C 295.521 367.600,296.121 367.351,296.255 367.000 C 296.382 366.670,296.700 366.400,296.963 366.400 C 297.846 366.400,299.594 365.405,299.597 364.900 C 299.599 364.625,299.973 364.400,300.429 364.400 C 301.314 364.400,302.400 363.534,302.400 362.829 C 302.400 362.593,302.746 362.400,303.169 362.400 C 304.118 362.400,309.600 357.163,309.600 356.257 C 309.600 355.896,309.780 355.600,310.000 355.600 C 310.220 355.600,310.400 355.330,310.400 355.000 C 310.400 354.670,310.670 354.400,311.000 354.400 C 311.330 354.400,311.600 354.130,311.600 353.800 C 311.600 353.470,311.780 353.200,312.000 353.200 C 312.220 353.200,312.400 352.859,312.400 352.443 C 312.400 352.026,312.670 351.582,313.000 351.455 C 313.330 351.329,313.600 350.859,313.600 350.413 C 313.600 349.966,313.737 349.600,313.905 349.600 C 314.211 349.600,314.933 348.415,315.429 347.100 C 315.574 346.715,315.852 346.400,316.047 346.400 C 316.241 346.400,316.400 345.950,316.400 345.400 C 316.400 344.778,316.627 344.400,317.000 344.400 C 317.357 344.400,317.600 344.033,317.600 343.495 C 317.600 342.996,318.049 342.253,318.600 341.839 C 319.150 341.426,319.600 340.753,319.600 340.344 C 319.600 339.935,319.780 339.600,320.000 339.600 C 320.220 339.600,320.400 339.150,320.400 338.600 C 320.400 338.050,320.625 337.599,320.900 337.597 C 321.416 337.594,322.400 335.839,322.400 334.920 C 322.400 334.634,322.670 334.400,323.000 334.400 C 323.373 334.400,323.600 334.022,323.600 333.400 C 323.600 332.850,323.780 332.400,324.000 332.400 C 324.220 332.400,324.400 332.208,324.400 331.973 C 324.400 331.739,324.850 330.957,325.400 330.236 C 325.950 329.514,326.400 328.646,326.400 328.305 C 326.400 327.964,326.670 327.582,327.000 327.455 C 327.330 327.329,327.600 326.859,327.600 326.413 C 327.600 325.966,327.737 325.600,327.905 325.600 C 328.211 325.600,328.933 324.415,329.429 323.100 C 329.574 322.715,329.852 322.400,330.047 322.400 C 330.241 322.400,330.400 321.950,330.400 321.400 C 330.400 320.778,330.627 320.400,331.000 320.400 C 331.338 320.400,331.600 320.043,331.600 319.583 C 331.600 319.133,332.050 318.280,332.600 317.687 C 333.150 317.093,333.600 316.381,333.600 316.104 C 333.600 315.827,333.780 315.600,334.000 315.600 C 334.220 315.600,334.400 315.150,334.400 314.600 C 334.400 313.978,334.627 313.600,335.000 313.600 C 335.373 313.600,335.600 313.222,335.600 312.600 C 335.600 312.050,335.780 311.600,336.000 311.600 C 336.220 311.600,336.400 311.349,336.400 311.043 C 336.400 310.736,336.670 310.382,337.000 310.255 C 337.330 310.129,337.600 309.659,337.600 309.213 C 337.600 308.766,337.780 308.400,338.000 308.400 C 338.220 308.400,338.400 307.950,338.400 307.400 C 338.400 306.847,338.632 306.400,338.920 306.400 C 339.205 306.400,339.661 305.787,339.932 305.038 C 340.203 304.289,340.689 303.575,341.012 303.451 C 341.335 303.327,341.600 302.859,341.600 302.413 C 341.600 301.966,341.780 301.600,342.000 301.600 C 342.220 301.600,342.400 301.150,342.400 300.600 C 342.400 300.050,342.625 299.599,342.900 299.597 C 343.416 299.594,344.400 297.839,344.400 296.920 C 344.400 296.634,344.670 296.400,345.000 296.400 C 345.373 296.400,345.600 296.022,345.600 295.400 C 345.600 294.850,345.780 294.400,346.000 294.400 C 346.220 294.400,346.400 293.950,346.400 293.400 C 346.400 292.778,346.627 292.400,347.000 292.400 C 347.330 292.400,347.600 292.130,347.600 291.800 C 347.600 291.470,347.780 291.200,348.000 291.200 C 348.220 291.200,348.400 290.859,348.400 290.443 C 348.400 290.026,348.670 289.582,349.000 289.455 C 349.330 289.329,349.600 288.859,349.600 288.413 C 349.600 287.966,349.780 287.600,350.000 287.600 C 350.220 287.600,350.400 287.234,350.400 286.787 C 350.400 286.341,350.670 285.871,351.000 285.745 C 351.330 285.618,351.600 285.264,351.600 284.957 C 351.600 284.651,351.780 284.400,352.000 284.400 C 352.220 284.400,352.400 283.950,352.400 283.400 C 352.400 282.778,352.627 282.400,353.000 282.400 C 353.373 282.400,353.600 282.022,353.600 281.400 C 353.600 280.850,353.780 280.400,354.000 280.400 C 354.220 280.400,354.400 280.208,354.400 279.973 C 354.400 279.739,354.850 278.957,355.400 278.236 C 355.950 277.514,356.400 276.646,356.400 276.305 C 356.400 275.964,356.670 275.582,357.000 275.455 C 357.330 275.329,357.600 274.859,357.600 274.413 C 357.600 273.966,357.780 273.600,358.000 273.600 C 358.220 273.600,358.400 273.330,358.400 273.000 C 358.400 272.670,358.560 272.400,358.757 272.400 C 358.953 272.400,359.226 271.950,359.364 271.400 C 359.502 270.850,359.792 270.400,360.008 270.400 C 360.223 270.400,360.400 269.950,360.400 269.400 C 360.400 268.778,360.627 268.400,361.000 268.400 C 361.373 268.400,361.600 268.022,361.600 267.400 C 361.600 266.850,361.780 266.400,362.000 266.400 C 362.220 266.400,362.400 266.207,362.400 265.971 C 362.400 265.736,362.625 265.292,362.900 264.985 C 364.171 263.568,364.400 263.182,364.400 262.460 C 364.400 262.034,364.670 261.582,365.000 261.455 C 365.330 261.329,365.600 260.859,365.600 260.413 C 365.600 259.966,365.780 259.600,366.000 259.600 C 366.220 259.600,366.400 259.330,366.400 259.000 C 366.400 258.670,366.577 258.400,366.792 258.400 C 367.008 258.400,367.298 257.950,367.436 257.400 C 367.574 256.850,367.847 256.400,368.043 256.400 C 368.240 256.400,368.400 255.950,368.400 255.400 C 368.400 254.778,368.627 254.400,369.000 254.400 C 369.373 254.400,369.600 254.022,369.600 253.400 C 369.600 252.850,369.780 252.400,370.000 252.400 C 370.220 252.400,370.400 252.207,370.400 251.971 C 370.400 251.736,370.625 251.292,370.900 250.985 C 372.177 249.562,372.400 249.179,372.400 248.417 C 372.400 247.957,372.663 247.600,373.000 247.600 C 373.373 247.600,373.600 247.222,373.600 246.600 C 373.600 246.050,373.780 245.600,374.000 245.600 C 374.220 245.600,374.400 245.349,374.400 245.043 C 374.400 244.736,374.670 244.382,375.000 244.255 C 375.330 244.129,375.600 243.659,375.600 243.213 C 375.600 242.766,375.780 242.400,376.000 242.400 C 376.220 242.400,376.400 241.950,376.400 241.400 C 376.400 240.778,376.627 240.400,377.000 240.400 C 377.330 240.400,377.600 240.102,377.600 239.738 C 377.600 239.374,378.050 238.486,378.600 237.764 C 379.150 237.043,379.600 236.261,379.600 236.027 C 379.600 235.792,379.780 235.600,380.000 235.600 C 380.220 235.600,380.400 235.150,380.400 234.600 C 380.400 233.978,380.627 233.600,381.000 233.600 C 381.373 233.600,381.600 233.222,381.600 232.600 C 381.600 232.050,381.780 231.600,382.000 231.600 C 382.220 231.600,382.400 231.330,382.400 231.000 C 382.400 230.670,382.577 230.400,382.792 230.400 C 383.008 230.400,383.298 229.950,383.436 229.400 C 383.574 228.850,383.847 228.400,384.043 228.400 C 384.240 228.400,384.400 227.950,384.400 227.400 C 384.400 226.778,384.627 226.400,385.000 226.400 C 385.373 226.400,385.600 226.022,385.600 225.400 C 385.600 224.850,385.780 224.400,386.000 224.400 C 386.220 224.400,386.400 224.130,386.400 223.800 C 386.400 223.470,386.535 223.199,386.700 223.197 C 387.090 223.194,388.400 220.892,388.400 220.210 C 388.400 219.922,388.670 219.582,389.000 219.455 C 389.330 219.329,389.600 218.859,389.600 218.413 C 389.600 217.966,389.780 217.600,390.000 217.600 C 390.220 217.600,390.400 217.259,390.400 216.843 C 390.400 216.426,390.670 215.982,391.000 215.855 C 391.330 215.729,391.600 215.349,391.600 215.013 C 391.600 214.676,391.780 214.400,392.000 214.400 C 392.220 214.400,392.400 213.950,392.400 213.400 C 392.400 212.778,392.627 212.400,393.000 212.400 C 393.373 212.400,393.600 212.022,393.600 211.400 C 393.600 210.850,393.780 210.400,394.000 210.400 C 394.220 210.400,394.400 209.789,394.400 209.043 C 394.400 208.205,394.630 207.597,395.000 207.455 C 395.423 207.293,395.600 206.632,395.600 205.213 C 395.600 204.106,395.780 203.200,396.000 203.200 C 396.254 203.200,396.400 200.200,396.400 195.000 C 396.400 189.800,396.254 186.800,396.000 186.800 C 395.780 186.800,395.600 185.894,395.600 184.787 C 395.600 183.368,395.423 182.707,395.000 182.545 C 394.630 182.403,394.400 181.795,394.400 180.957 C 394.400 180.211,394.220 179.600,394.000 179.600 C 393.780 179.600,393.600 179.163,393.600 178.629 C 393.600 178.094,393.330 177.387,393.000 177.057 C 392.670 176.727,392.400 176.103,392.400 175.671 C 392.400 175.238,391.953 174.460,391.407 173.942 C 390.861 173.424,390.411 172.685,390.407 172.300 C 390.403 171.915,390.220 171.600,390.000 171.600 C 389.780 171.600,389.600 171.150,389.600 170.600 C 389.600 169.978,389.373 169.600,389.000 169.600 C 388.627 169.600,388.400 169.222,388.400 168.600 C 388.400 168.050,388.220 167.600,388.000 167.600 C 387.780 167.600,387.600 167.349,387.600 167.043 C 387.600 166.736,387.330 166.382,387.000 166.255 C 386.670 166.129,386.400 165.659,386.400 165.213 C 386.400 164.766,386.220 164.400,386.000 164.400 C 385.780 164.400,385.600 164.034,385.600 163.587 C 385.600 163.141,385.330 162.671,385.000 162.545 C 384.670 162.418,384.400 161.993,384.400 161.599 C 384.400 161.206,383.953 160.460,383.407 159.942 C 382.861 159.424,382.411 158.685,382.407 158.300 C 382.403 157.915,382.220 157.600,382.000 157.600 C 381.780 157.600,381.600 157.150,381.600 156.600 C 381.600 155.978,381.373 155.600,381.000 155.600 C 380.627 155.600,380.400 155.222,380.400 154.600 C 380.400 154.050,380.220 153.600,380.000 153.600 C 379.780 153.600,379.600 153.349,379.600 153.043 C 379.600 152.736,379.330 152.382,379.000 152.255 C 378.670 152.129,378.400 151.659,378.400 151.213 C 378.400 150.766,378.220 150.400,378.000 150.400 C 377.780 150.400,377.600 150.034,377.600 149.587 C 377.600 149.141,377.330 148.671,377.000 148.545 C 376.670 148.418,376.400 147.974,376.400 147.557 C 376.400 147.141,376.220 146.800,376.000 146.800 C 375.780 146.800,375.600 146.530,375.600 146.200 C 375.600 145.870,375.330 145.600,375.000 145.600 C 374.627 145.600,374.400 145.222,374.400 144.600 C 374.400 144.050,374.220 143.600,374.000 143.600 C 373.780 143.600,373.600 143.150,373.600 142.600 C 373.600 141.978,373.373 141.600,373.000 141.600 C 372.670 141.600,372.400 141.366,372.400 141.080 C 372.400 140.161,371.416 138.406,370.900 138.403 C 370.625 138.401,370.400 137.950,370.400 137.400 C 370.400 136.850,370.220 136.400,370.000 136.400 C 369.780 136.400,369.600 136.034,369.600 135.587 C 369.600 135.141,369.335 134.673,369.012 134.549 C 368.689 134.425,368.203 133.711,367.932 132.962 C 367.661 132.213,367.205 131.600,366.920 131.600 C 366.632 131.600,366.400 131.153,366.400 130.600 C 366.400 130.050,366.220 129.600,366.000 129.600 C 365.780 129.600,365.600 129.234,365.600 128.787 C 365.600 128.341,365.330 127.871,365.000 127.745 C 364.670 127.618,364.400 127.264,364.400 126.957 C 364.400 126.651,364.220 126.400,364.000 126.400 C 363.780 126.400,363.600 125.950,363.600 125.400 C 363.600 124.778,363.373 124.400,363.000 124.400 C 362.627 124.400,362.400 124.022,362.400 123.400 C 362.400 122.850,362.220 122.400,362.000 122.400 C 361.780 122.400,361.600 122.173,361.600 121.896 C 361.600 121.619,361.150 120.907,360.600 120.313 C 360.050 119.720,359.600 118.867,359.600 118.417 C 359.600 117.957,359.338 117.600,359.000 117.600 C 358.627 117.600,358.400 117.222,358.400 116.600 C 358.400 116.050,358.240 115.600,358.043 115.600 C 357.847 115.600,357.574 115.150,357.436 114.600 C 357.298 114.050,357.008 113.600,356.792 113.600 C 356.577 113.600,356.400 113.330,356.400 113.000 C 356.400 112.670,356.220 112.400,356.000 112.400 C 355.780 112.400,355.600 112.034,355.600 111.587 C 355.600 111.141,355.330 110.671,355.000 110.545 C 354.670 110.418,354.400 110.078,354.400 109.790 C 354.400 109.108,353.090 106.806,352.700 106.803 C 352.535 106.801,352.400 106.530,352.400 106.200 C 352.400 105.870,352.220 105.600,352.000 105.600 C 351.780 105.600,351.600 105.150,351.600 104.600 C 351.600 103.978,351.373 103.600,351.000 103.600 C 350.627 103.600,350.400 103.222,350.400 102.600 C 350.400 102.050,350.220 101.600,350.000 101.600 C 349.780 101.600,349.600 101.349,349.600 101.043 C 349.600 100.736,349.330 100.382,349.000 100.255 C 348.670 100.129,348.400 99.659,348.400 99.213 C 348.400 98.766,348.220 98.400,348.000 98.400 C 347.780 98.400,347.600 98.034,347.600 97.587 C 347.600 97.141,347.330 96.671,347.000 96.545 C 346.670 96.418,346.400 95.974,346.400 95.557 C 346.400 95.141,346.220 94.800,346.000 94.800 C 345.780 94.800,345.600 94.530,345.600 94.200 C 345.600 93.870,345.330 93.600,345.000 93.600 C 344.627 93.600,344.400 93.222,344.400 92.600 C 344.400 92.050,344.220 91.600,344.000 91.600 C 343.780 91.600,343.600 91.150,343.600 90.600 C 343.600 89.978,343.373 89.600,343.000 89.600 C 342.670 89.600,342.400 89.366,342.400 89.080 C 342.400 88.161,341.416 86.406,340.900 86.403 C 340.625 86.401,340.400 85.950,340.400 85.400 C 340.400 84.850,340.220 84.400,340.000 84.400 C 339.780 84.400,339.597 84.085,339.593 83.700 C 339.589 83.315,339.139 82.576,338.593 82.058 C 338.047 81.540,337.600 80.775,337.600 80.358 C 337.600 79.941,337.330 79.600,337.000 79.600 C 336.627 79.600,336.400 79.222,336.400 78.600 C 336.400 78.050,336.220 77.600,336.000 77.600 C 335.780 77.600,335.600 77.234,335.600 76.787 C 335.600 76.341,335.330 75.871,335.000 75.745 C 334.670 75.618,334.400 75.264,334.400 74.957 C 334.400 74.651,334.220 74.400,334.000 74.400 C 333.780 74.400,333.600 74.034,333.600 73.587 C 333.600 73.141,333.330 72.671,333.000 72.545 C 332.670 72.418,332.400 71.961,332.400 71.529 C 332.400 71.096,332.175 70.492,331.900 70.185 C 330.713 68.862,330.400 68.409,330.400 68.017 C 330.400 67.788,330.220 67.600,330.000 67.600 C 329.780 67.600,329.600 67.150,329.600 66.600 C 329.600 65.978,329.373 65.600,329.000 65.600 C 328.627 65.600,328.400 65.222,328.400 64.600 C 328.400 64.050,328.220 63.600,328.000 63.600 C 327.780 63.600,327.600 63.324,327.600 62.987 C 327.600 62.651,327.330 62.271,327.000 62.145 C 326.670 62.018,326.400 61.574,326.400 61.157 C 326.400 60.741,326.220 60.400,326.000 60.400 C 325.780 60.400,325.600 60.034,325.600 59.587 C 325.600 59.141,325.330 58.671,325.000 58.545 C 324.670 58.418,324.394 58.019,324.387 57.657 C 324.371 56.828,323.457 55.600,322.856 55.600 C 322.605 55.600,322.400 55.150,322.400 54.600 C 322.400 54.050,322.220 53.600,322.000 53.600 C 321.780 53.600,321.600 53.249,321.600 52.820 C 321.600 52.391,321.375 51.896,321.100 51.720 C 320.445 51.301,319.600 49.772,319.600 49.005 C 319.600 48.672,319.330 48.400,319.000 48.400 C 318.627 48.400,318.400 48.022,318.400 47.400 C 318.400 46.850,318.220 46.400,318.000 46.400 C 317.780 46.400,317.600 46.173,317.600 45.896 C 317.600 45.619,317.150 44.907,316.600 44.313 C 316.050 43.720,315.600 42.867,315.600 42.417 C 315.600 41.957,315.338 41.600,315.000 41.600 C 314.627 41.600,314.400 41.222,314.400 40.600 C 314.400 40.050,314.220 39.600,314.000 39.600 C 313.780 39.600,313.600 39.324,313.600 38.987 C 313.600 38.651,313.330 38.271,313.000 38.145 C 312.670 38.018,312.400 37.574,312.400 37.157 C 312.400 36.741,312.220 36.400,312.000 36.400 C 311.780 36.400,311.600 36.173,311.600 35.896 C 311.600 35.619,311.150 34.907,310.600 34.313 C 310.050 33.720,309.600 33.047,309.600 32.817 C 309.600 32.588,309.407 32.400,309.171 32.400 C 308.618 32.400,307.600 31.382,307.600 30.829 C 307.600 30.593,307.407 30.400,307.171 30.400 C 306.618 30.400,305.600 29.382,305.600 28.829 C 305.600 28.593,305.423 28.400,305.207 28.400 C 304.991 28.400,304.166 27.770,303.373 27.000 C 302.580 26.230,301.587 25.600,301.166 25.600 C 300.745 25.600,300.400 25.364,300.400 25.075 C 300.400 24.786,299.777 24.305,299.017 24.007 C 298.256 23.708,297.541 23.224,297.429 22.932 C 297.317 22.639,296.769 22.400,296.213 22.400 C 295.656 22.400,295.200 22.220,295.200 22.000 C 295.200 21.780,294.570 21.600,293.800 21.600 C 292.822 21.600,292.400 21.419,292.400 21.000 C 292.400 20.581,291.978 20.400,291.000 20.400 C 290.230 20.400,289.600 20.220,289.600 20.000 C 289.600 19.780,288.719 19.600,287.643 19.600 C 286.272 19.600,285.617 19.420,285.455 19.000 C 285.252 18.469,275.342 18.400,199.600 18.400 C 123.858 18.400,113.948 18.469,113.745 19.000 M281.234 30.765 C 292.392 33.648,300.828 39.951,305.910 49.200 C 306.575 50.410,309.117 54.799,311.559 58.954 C 314.002 63.109,316.000 66.577,316.000 66.662 C 316.000 66.747,316.482 67.577,317.071 68.508 C 317.661 69.439,319.429 72.450,321.000 75.200 C 322.571 77.950,324.339 80.961,324.929 81.892 C 325.518 82.823,326.000 83.686,326.000 83.811 C 326.000 83.936,326.594 84.975,327.320 86.119 C 328.046 87.264,329.349 89.460,330.215 91.000 C 331.081 92.540,332.010 94.160,332.279 94.600 C 332.548 95.040,332.900 95.670,333.060 96.000 C 333.220 96.330,333.947 97.536,334.676 98.681 C 335.404 99.825,336.000 100.869,336.000 101.000 C 336.000 101.131,336.596 102.175,337.324 103.319 C 338.053 104.464,338.774 105.670,338.928 106.000 C 339.081 106.330,339.536 107.140,339.938 107.800 C 340.340 108.460,341.267 110.080,341.999 111.400 C 342.731 112.720,344.381 115.572,345.665 117.737 C 346.949 119.903,348.000 121.751,348.000 121.845 C 348.000 121.939,348.480 122.777,349.067 123.707 C 350.354 125.745,354.000 132.060,354.000 132.250 C 354.000 132.325,354.747 133.604,355.660 135.093 C 357.333 137.821,357.665 138.394,359.893 142.400 C 360.566 143.610,362.215 146.460,363.558 148.733 C 364.901 151.006,366.000 152.949,366.000 153.052 C 366.000 153.154,366.596 154.175,367.324 155.319 C 368.053 156.464,368.774 157.670,368.928 158.000 C 369.081 158.330,369.536 159.140,369.938 159.800 C 370.340 160.460,371.267 162.080,371.999 163.400 C 372.731 164.720,374.341 167.510,375.576 169.600 C 382.187 180.787,384.000 186.102,384.000 194.298 C 384.000 201.931,382.304 207.855,377.914 215.557 C 376.861 217.404,376.000 218.953,376.000 219.000 C 376.000 219.140,371.944 226.166,371.612 226.600 C 371.444 226.820,370.863 227.810,370.319 228.800 C 367.297 234.307,366.624 235.491,366.001 236.400 C 365.623 236.950,364.868 238.210,364.323 239.200 C 361.822 243.741,360.717 245.682,358.442 249.533 C 357.099 251.806,356.000 253.744,356.000 253.841 C 356.000 253.937,355.520 254.777,354.933 255.707 C 353.755 257.572,350.000 264.053,350.000 264.220 C 350.000 264.278,348.949 266.097,347.665 268.263 C 346.381 270.428,344.731 273.280,343.999 274.600 C 343.267 275.920,342.340 277.540,341.938 278.200 C 341.536 278.860,341.081 279.670,340.928 280.000 C 340.774 280.330,340.053 281.536,339.324 282.681 C 338.596 283.825,338.000 284.848,338.000 284.953 C 338.000 285.059,336.650 287.426,335.000 290.213 C 333.350 293.000,332.000 295.328,332.000 295.386 C 332.000 295.444,330.002 298.891,327.559 303.046 C 325.117 307.201,322.567 311.590,321.894 312.800 C 321.220 314.010,320.340 315.540,319.938 316.200 C 319.536 316.860,319.081 317.670,318.928 318.000 C 318.774 318.330,318.053 319.536,317.324 320.681 C 316.596 321.825,316.000 322.869,316.000 323.000 C 316.000 323.131,315.404 324.175,314.676 325.319 C 313.947 326.464,313.226 327.670,313.072 328.000 C 312.919 328.330,312.465 329.140,312.063 329.800 C 311.661 330.460,310.832 331.900,310.221 333.000 C 301.727 348.274,296.412 353.423,284.600 357.821 C 280.740 359.258,263.843 359.573,191.400 359.559 C 134.917 359.548,118.907 359.297,116.400 358.385 C 112.504 356.966,109.652 355.745,108.308 354.918 C 107.487 354.413,106.715 354.000,106.591 354.000 C 104.731 354.000,94.000 342.910,94.000 340.988 C 94.000 340.880,93.100 339.355,92.000 337.600 C 90.900 335.845,90.000 334.315,90.000 334.200 C 90.000 334.085,89.100 332.555,88.000 330.800 C 86.900 329.045,86.000 327.513,86.000 327.396 C 86.000 327.280,85.520 326.423,84.933 325.493 C 83.735 323.595,80.000 317.146,80.000 316.974 C 80.000 316.913,79.100 315.412,78.000 313.639 C 76.900 311.865,76.000 310.316,76.000 310.197 C 76.000 310.078,75.280 308.840,74.400 307.447 C 73.520 306.054,72.800 304.801,72.800 304.665 C 72.800 304.528,72.170 303.431,71.400 302.227 C 70.630 301.023,70.000 299.931,70.000 299.800 C 70.000 299.669,69.400 298.624,68.667 297.478 C 67.934 296.331,66.882 294.585,66.329 293.597 C 65.338 291.825,63.203 288.139,61.966 286.064 C 61.617 285.479,60.781 284.010,60.108 282.800 C 59.434 281.590,57.785 278.740,56.442 276.467 C 55.099 274.194,54.000 272.255,54.000 272.158 C 54.000 272.060,53.280 270.840,52.400 269.447 C 51.520 268.054,50.800 266.801,50.800 266.665 C 50.800 266.528,50.170 265.431,49.400 264.227 C 48.630 263.023,48.000 261.943,48.000 261.826 C 48.000 261.710,47.253 260.396,46.340 258.907 C 44.667 256.179,44.335 255.606,42.107 251.600 C 41.434 250.390,39.785 247.540,38.442 245.267 C 37.099 242.994,36.000 241.051,36.000 240.948 C 36.000 240.846,35.404 239.825,34.676 238.681 C 33.947 237.536,33.226 236.330,33.072 236.000 C 32.919 235.670,32.465 234.860,32.063 234.200 C 31.661 233.540,30.882 232.190,30.332 231.200 C 27.477 226.064,26.613 224.539,23.532 219.200 C 18.206 209.970,16.845 206.800,15.975 201.600 C 14.322 191.726,15.895 183.311,21.019 174.600 C 21.925 173.060,23.266 170.720,23.999 169.400 C 24.732 168.080,25.660 166.460,26.062 165.800 C 26.464 165.140,26.919 164.330,27.072 164.000 C 27.226 163.670,27.947 162.464,28.676 161.319 C 29.404 160.175,30.000 159.166,30.000 159.077 C 30.000 158.884,33.948 151.976,34.388 151.400 C 34.556 151.180,35.137 150.190,35.681 149.200 C 38.703 143.693,39.376 142.509,39.999 141.600 C 40.377 141.050,41.132 139.790,41.677 138.800 C 44.178 134.259,45.283 132.318,47.558 128.467 C 48.901 126.194,50.000 124.285,50.000 124.225 C 50.000 124.054,53.738 117.599,54.933 115.707 C 55.520 114.777,56.000 113.937,56.000 113.841 C 56.000 113.744,57.099 111.806,58.442 109.533 C 59.785 107.260,61.434 104.410,62.108 103.200 C 62.781 101.990,63.660 100.460,64.062 99.800 C 64.464 99.140,64.914 98.330,65.062 98.000 C 65.209 97.670,65.635 96.950,66.008 96.400 C 66.381 95.850,67.134 94.590,67.681 93.600 C 68.629 91.886,70.668 88.356,72.034 86.064 C 72.383 85.479,73.219 84.010,73.892 82.800 C 74.566 81.590,76.215 78.740,77.558 76.467 C 78.901 74.194,80.000 72.251,80.000 72.148 C 80.000 72.046,80.603 71.018,81.341 69.866 C 82.078 68.713,83.278 66.696,84.007 65.385 C 84.735 64.073,85.617 62.523,85.966 61.939 C 86.315 61.356,87.318 59.646,88.195 58.139 C 89.072 56.633,89.972 55.097,90.195 54.726 C 91.019 53.354,93.346 49.359,94.073 48.067 C 97.925 41.224,106.323 34.393,114.000 31.859 C 114.990 31.532,116.520 31.031,117.400 30.746 C 121.578 29.391,275.984 29.409,281.234 30.765 M257.283 94.780 C 249.175 96.070,239.175 104.053,236.716 111.200 C 233.763 119.781,234.456 128.350,238.817 137.200 C 240.890 141.408,247.104 154.205,250.933 162.153 C 252.510 165.426,255.618 171.816,257.840 176.353 L 261.881 184.600 243.876 184.704 C 222.979 184.825,224.800 184.370,224.800 189.475 C 224.800 195.403,222.635 194.800,243.934 194.800 C 265.264 194.800,263.200 195.369,263.200 189.488 L 263.200 185.137 265.649 180.068 C 266.997 177.281,270.125 170.860,272.602 165.800 C 275.078 160.740,278.044 154.620,279.193 152.200 C 280.341 149.780,282.361 145.550,283.683 142.800 C 287.960 133.897,289.200 131.089,289.200 130.306 C 289.200 129.991,289.335 129.600,289.500 129.437 C 291.676 127.290,290.132 113.919,287.140 109.000 C 286.738 108.340,286.234 107.400,286.019 106.912 C 285.250 105.162,278.660 99.012,276.132 97.684 C 270.973 94.974,263.401 93.807,257.283 94.780 M267.038 107.514 C 267.457 107.732,268.518 108.246,269.396 108.656 C 275.660 111.577,279.374 119.770,277.348 126.198 C 273.301 139.038,256.515 141.222,249.631 129.804 C 244.591 121.444,249.453 109.607,258.932 107.158 C 260.533 106.745,266.027 106.986,267.038 107.514 M126.000 125.234 C 125.010 125.413,123.210 125.737,122.000 125.954 C 120.790 126.170,118.810 126.637,117.600 126.990 C 116.390 127.344,114.860 127.779,114.200 127.958 C 112.861 128.321,107.973 130.689,105.175 132.330 C 101.864 134.271,96.295 138.900,93.906 141.696 C 88.515 148.007,85.316 153.526,83.415 159.800 C 83.015 161.120,82.545 162.560,82.371 163.000 C 81.370 165.528,80.803 181.600,81.601 184.800 C 83.346 191.794,83.869 193.260,86.649 198.976 C 87.392 200.503,88.000 201.921,88.000 202.129 C 88.000 202.445,94.308 215.441,99.489 225.800 C 101.959 230.740,103.241 233.361,103.989 235.000 C 104.390 235.880,106.791 240.830,109.324 246.000 C 111.856 251.170,114.852 257.380,115.979 259.800 C 117.107 262.220,118.172 264.470,118.345 264.800 C 118.517 265.130,118.944 265.940,119.292 266.600 C 119.640 267.260,120.413 268.880,121.009 270.200 C 121.606 271.520,122.375 273.140,122.718 273.800 C 123.566 275.434,123.705 275.712,125.602 279.600 C 126.515 281.470,127.417 283.270,127.608 283.600 C 129.957 287.671,130.583 289.788,130.791 294.372 L 131.000 299.000 149.891 299.104 L 168.783 299.208 169.009 298.304 C 169.133 297.807,169.182 295.780,169.118 293.800 L 169.000 290.200 151.520 290.000 C 138.943 289.856,133.908 289.669,133.572 289.332 C 133.215 288.975,133.601 287.838,135.203 284.532 C 139.169 276.348,143.252 267.799,143.672 266.800 C 143.903 266.250,144.238 265.530,144.415 265.200 C 144.987 264.134,152.063 249.839,152.632 248.600 C 154.226 245.129,166.122 220.817,167.540 218.132 C 167.932 217.389,169.060 214.943,171.012 210.600 C 171.929 208.559,172.832 206.722,174.450 203.600 C 174.621 203.270,175.074 202.280,175.457 201.400 C 175.840 200.520,176.528 199.170,176.986 198.400 C 177.444 197.630,178.061 196.280,178.356 195.400 C 178.651 194.520,179.115 193.260,179.387 192.600 C 179.659 191.940,180.110 190.500,180.390 189.400 C 180.669 188.300,181.090 186.680,181.325 185.800 C 182.288 182.188,181.883 166.970,180.718 163.000 C 177.110 150.707,170.138 140.601,161.066 134.516 C 159.495 133.462,157.962 132.368,157.661 132.084 C 155.772 130.310,145.933 126.730,140.400 125.804 C 139.630 125.675,138.100 125.410,137.000 125.214 C 134.553 124.779,128.445 124.790,126.000 125.234 M137.400 148.632 C 142.865 149.869,148.885 153.466,152.293 157.529 C 153.830 159.362,156.800 163.789,156.800 164.247 C 156.800 164.375,157.047 165.046,157.348 165.740 C 158.700 168.848,159.000 170.725,159.000 176.080 C 159.000 179.930,158.851 181.709,158.500 182.060 C 158.225 182.335,158.000 182.989,158.000 183.512 C 158.000 185.492,153.332 193.357,151.017 195.278 C 143.368 201.625,140.092 202.933,131.800 202.953 C 124.439 202.971,120.203 201.710,115.502 198.103 C 113.816 196.810,108.941 191.611,108.375 190.503 C 108.065 189.896,107.312 188.567,106.702 187.550 C 105.026 184.755,104.000 180.169,104.000 175.471 C 104.000 170.216,104.790 167.352,107.771 161.800 C 109.560 158.466,113.781 154.258,117.400 152.202 C 118.500 151.576,119.670 150.857,120.000 150.603 C 120.330 150.350,121.410 149.908,122.400 149.623 C 123.390 149.337,124.920 148.869,125.800 148.583 C 128.045 147.854,134.075 147.879,137.400 148.632 M206.183 185.300 C 206.078 185.575,206.038 194.170,206.096 204.400 L 206.200 223.000 210.600 223.000 L 215.000 223.000 215.104 204.226 C 215.186 189.472,215.100 185.384,214.704 185.132 C 213.840 184.584,206.402 184.730,206.183 185.300 M226.667 214.267 C 226.178 214.755,226.368 222.608,226.880 223.120 C 227.824 224.064,263.875 223.781,264.386 222.826 C 265.096 221.499,264.919 214.531,264.167 214.243 C 263.301 213.910,227.000 213.933,226.667 214.267 M272.000 233.000 L 272.000 252.026 276.500 251.913 L 281.000 251.800 281.000 233.000 L 281.000 214.200 276.500 214.087 L 272.000 213.974 272.000 233.000 M272.000 281.000 L 272.000 300.026 276.500 299.913 L 281.000 299.800 281.000 281.000 L 281.000 262.200 276.500 262.087 L 272.000 261.974 272.000 281.000 M178.087 294.500 L 178.200 299.000 197.000 299.000 L 215.800 299.000 215.913 294.500 L 216.026 290.000 197.000 290.000 L 177.974 290.000 178.087 294.500 M224.671 290.263 C 224.049 290.885,224.374 298.705,225.033 298.957 C 226.503 299.521,261.884 299.222,262.366 298.641 C 262.668 298.278,262.790 296.703,262.715 294.141 L 262.600 290.200 243.771 290.096 C 233.414 290.039,224.819 290.114,224.671 290.263 " stroke="none" fill="#fafafc" fill-rule="evenodd"></path><path id="path1" d="M141.800 29.971 C 124.799 30.162,118.593 30.359,117.400 30.746 C 116.520 31.031,114.990 31.532,114.000 31.859 C 106.323 34.393,97.925 41.224,94.073 48.067 C 93.346 49.359,91.019 53.354,90.195 54.726 C 89.972 55.097,89.072 56.633,88.195 58.139 C 87.318 59.646,86.315 61.356,85.966 61.939 C 85.617 62.523,84.735 64.073,84.007 65.385 C 83.278 66.696,82.078 68.713,81.341 69.866 C 80.603 71.018,80.000 72.046,80.000 72.148 C 80.000 72.251,78.901 74.194,77.558 76.467 C 76.215 78.740,74.566 81.590,73.892 82.800 C 73.219 84.010,72.383 85.479,72.034 86.064 C 70.668 88.356,68.629 91.886,67.681 93.600 C 67.134 94.590,66.381 95.850,66.008 96.400 C 65.635 96.950,65.209 97.670,65.062 98.000 C 64.914 98.330,64.464 99.140,64.062 99.800 C 63.660 100.460,62.781 101.990,62.108 103.200 C 61.434 104.410,59.785 107.260,58.442 109.533 C 57.099 111.806,56.000 113.744,56.000 113.841 C 56.000 113.937,55.520 114.777,54.933 115.707 C 53.738 117.599,50.000 124.054,50.000 124.225 C 50.000 124.285,48.901 126.194,47.558 128.467 C 45.283 132.318,44.178 134.259,41.677 138.800 C 41.132 139.790,40.377 141.050,39.999 141.600 C 39.376 142.509,38.703 143.693,35.681 149.200 C 35.137 150.190,34.556 151.180,34.388 151.400 C 33.948 151.976,30.000 158.884,30.000 159.077 C 30.000 159.166,29.404 160.175,28.676 161.319 C 27.947 162.464,27.226 163.670,27.072 164.000 C 26.919 164.330,26.464 165.140,26.062 165.800 C 25.660 166.460,24.732 168.080,23.999 169.400 C 23.266 170.720,21.925 173.060,21.019 174.600 C 15.895 183.311,14.322 191.726,15.975 201.600 C 16.845 206.800,18.206 209.970,23.532 219.200 C 26.613 224.539,27.477 226.064,30.332 231.200 C 30.882 232.190,31.661 233.540,32.063 234.200 C 32.465 234.860,32.919 235.670,33.072 236.000 C 33.226 236.330,33.947 237.536,34.676 238.681 C 35.404 239.825,36.000 240.846,36.000 240.948 C 36.000 241.051,37.099 242.994,38.442 245.267 C 39.785 247.540,41.434 250.390,42.107 251.600 C 44.335 255.606,44.667 256.179,46.340 258.907 C 47.253 260.396,48.000 261.710,48.000 261.826 C 48.000 261.943,48.630 263.023,49.400 264.227 C 50.170 265.431,50.800 266.528,50.800 266.665 C 50.800 266.801,51.520 268.054,52.400 269.447 C 53.280 270.840,54.000 272.060,54.000 272.158 C 54.000 272.255,55.099 274.194,56.442 276.467 C 57.785 278.740,59.434 281.590,60.108 282.800 C 60.781 284.010,61.617 285.479,61.966 286.064 C 63.203 288.139,65.338 291.825,66.329 293.597 C 66.882 294.585,67.934 296.331,68.667 297.478 C 69.400 298.624,70.000 299.669,70.000 299.800 C 70.000 299.931,70.630 301.023,71.400 302.227 C 72.170 303.431,72.800 304.528,72.800 304.665 C 72.800 304.801,73.520 306.054,74.400 307.447 C 75.280 308.840,76.000 310.078,76.000 310.197 C 76.000 310.316,76.900 311.865,78.000 313.639 C 79.100 315.412,80.000 316.913,80.000 316.974 C 80.000 317.146,83.735 323.595,84.933 325.493 C 85.520 326.423,86.000 327.280,86.000 327.396 C 86.000 327.513,86.900 329.045,88.000 330.800 C 89.100 332.555,90.000 334.085,90.000 334.200 C 90.000 334.315,90.900 335.845,92.000 337.600 C 93.100 339.355,94.000 340.880,94.000 340.988 C 94.000 342.910,104.731 354.000,106.591 354.000 C 106.715 354.000,107.487 354.413,108.308 354.918 C 109.652 355.745,112.504 356.966,116.400 358.385 C 118.907 359.297,134.917 359.548,191.400 359.559 C 263.843 359.573,280.740 359.258,284.600 357.821 C 296.412 353.423,301.727 348.274,310.221 333.000 C 310.832 331.900,311.661 330.460,312.063 329.800 C 312.465 329.140,312.919 328.330,313.072 328.000 C 313.226 327.670,313.947 326.464,314.676 325.319 C 315.404 324.175,316.000 323.131,316.000 323.000 C 316.000 322.869,316.596 321.825,317.324 320.681 C 318.053 319.536,318.774 318.330,318.928 318.000 C 319.081 317.670,319.536 316.860,319.938 316.200 C 320.340 315.540,321.220 314.010,321.894 312.800 C 322.567 311.590,325.117 307.201,327.559 303.046 C 330.002 298.891,332.000 295.444,332.000 295.386 C 332.000 295.328,333.350 293.000,335.000 290.213 C 336.650 287.426,338.000 285.059,338.000 284.953 C 338.000 284.848,338.596 283.825,339.324 282.681 C 340.053 281.536,340.774 280.330,340.928 280.000 C 341.081 279.670,341.536 278.860,341.938 278.200 C 342.340 277.540,343.267 275.920,343.999 274.600 C 344.731 273.280,346.381 270.428,347.665 268.263 C 348.949 266.097,350.000 264.278,350.000 264.220 C 350.000 264.053,353.755 257.572,354.933 255.707 C 355.520 254.777,356.000 253.937,356.000 253.841 C 356.000 253.744,357.099 251.806,358.442 249.533 C 360.717 245.682,361.822 243.741,364.323 239.200 C 364.868 238.210,365.623 236.950,366.001 236.400 C 366.624 235.491,367.297 234.307,370.319 228.800 C 370.863 227.810,371.444 226.820,371.612 226.600 C 371.944 226.166,376.000 219.140,376.000 219.000 C 376.000 218.953,376.861 217.404,377.914 215.557 C 386.937 199.727,386.330 187.797,375.576 169.600 C 374.341 167.510,372.731 164.720,371.999 163.400 C 371.267 162.080,370.340 160.460,369.938 159.800 C 369.536 159.140,369.081 158.330,368.928 158.000 C 368.774 157.670,368.053 156.464,367.324 155.319 C 366.596 154.175,366.000 153.154,366.000 153.052 C 366.000 152.949,364.901 151.006,363.558 148.733 C 362.215 146.460,360.566 143.610,359.893 142.400 C 357.665 138.394,357.333 137.821,355.660 135.093 C 354.747 133.604,354.000 132.325,354.000 132.250 C 354.000 132.060,350.354 125.745,349.067 123.707 C 348.480 122.777,348.000 121.939,348.000 121.845 C 348.000 121.751,346.949 119.903,345.665 117.737 C 344.381 115.572,342.731 112.720,341.999 111.400 C 341.267 110.080,340.340 108.460,339.938 107.800 C 339.536 107.140,339.081 106.330,338.928 106.000 C 338.774 105.670,338.053 104.464,337.324 103.319 C 336.596 102.175,336.000 101.131,336.000 101.000 C 336.000 100.869,335.404 99.825,334.676 98.681 C 333.947 97.536,333.220 96.330,333.060 96.000 C 332.900 95.670,332.548 95.040,332.279 94.600 C 332.010 94.160,331.081 92.540,330.215 91.000 C 329.349 89.460,328.046 87.264,327.320 86.119 C 326.594 84.975,326.000 83.936,326.000 83.811 C 326.000 83.686,325.518 82.823,324.929 81.892 C 324.339 80.961,322.571 77.950,321.000 75.200 C 319.429 72.450,317.661 69.439,317.071 68.508 C 316.482 67.577,316.000 66.747,316.000 66.662 C 316.000 66.577,314.002 63.109,311.559 58.954 C 309.117 54.799,306.575 50.410,305.910 49.200 C 300.828 39.951,292.392 33.648,281.234 30.765 C 277.916 29.908,191.356 29.415,141.800 29.971 M271.157 95.586 C 276.474 97.285,284.463 103.373,286.019 106.912 C 286.234 107.400,286.738 108.340,287.140 109.000 C 290.132 113.919,291.676 127.290,289.500 129.437 C 289.335 129.600,289.200 129.991,289.200 130.306 C 289.200 131.089,287.960 133.897,283.683 142.800 C 282.361 145.550,280.341 149.780,279.193 152.200 C 278.044 154.620,275.078 160.740,272.602 165.800 C 270.125 170.860,266.997 177.281,265.649 180.068 L 263.200 185.137 263.200 189.488 C 263.200 195.369,265.264 194.800,243.934 194.800 C 222.635 194.800,224.800 195.403,224.800 189.475 C 224.800 184.370,222.979 184.825,243.876 184.704 L 261.881 184.600 257.840 176.353 C 255.618 171.816,252.510 165.426,250.933 162.153 C 247.104 154.205,240.890 141.408,238.817 137.200 C 230.071 119.452,236.281 102.306,253.883 95.605 C 257.559 94.206,266.805 94.196,271.157 95.586 M258.932 107.158 C 249.453 109.607,244.591 121.444,249.631 129.804 C 256.515 141.222,273.301 139.038,277.348 126.198 C 278.525 122.464,278.228 119.828,276.110 115.203 C 275.265 113.358,271.403 109.591,269.396 108.656 C 268.518 108.246,267.457 107.732,267.038 107.514 C 266.027 106.986,260.533 106.745,258.932 107.158 M137.000 125.214 C 138.100 125.410,139.630 125.675,140.400 125.804 C 145.933 126.730,155.772 130.310,157.661 132.084 C 157.962 132.368,159.495 133.462,161.066 134.516 C 170.138 140.601,177.110 150.707,180.718 163.000 C 181.883 166.970,182.288 182.188,181.325 185.800 C 181.090 186.680,180.669 188.300,180.390 189.400 C 180.110 190.500,179.659 191.940,179.387 192.600 C 179.115 193.260,178.651 194.520,178.356 195.400 C 178.061 196.280,177.444 197.630,176.986 198.400 C 176.528 199.170,175.840 200.520,175.457 201.400 C 175.074 202.280,174.621 203.270,174.450 203.600 C 172.832 206.722,171.929 208.559,171.012 210.600 C 169.060 214.943,167.932 217.389,167.540 218.132 C 166.122 220.817,154.226 245.129,152.632 248.600 C 152.063 249.839,144.987 264.134,144.415 265.200 C 144.238 265.530,143.903 266.250,143.672 266.800 C 143.252 267.799,139.169 276.348,135.203 284.532 C 133.601 287.838,133.215 288.975,133.572 289.332 C 133.908 289.669,138.943 289.856,151.520 290.000 L 169.000 290.200 169.118 293.800 C 169.182 295.780,169.133 297.807,169.009 298.304 L 168.783 299.208 149.891 299.104 L 131.000 299.000 130.791 294.372 C 130.583 289.788,129.957 287.671,127.608 283.600 C 127.417 283.270,126.515 281.470,125.602 279.600 C 123.705 275.712,123.566 275.434,122.718 273.800 C 122.375 273.140,121.606 271.520,121.009 270.200 C 120.413 268.880,119.640 267.260,119.292 266.600 C 118.944 265.940,118.517 265.130,118.345 264.800 C 118.172 264.470,117.107 262.220,115.979 259.800 C 114.852 257.380,111.856 251.170,109.324 246.000 C 106.791 240.830,104.390 235.880,103.989 235.000 C 103.241 233.361,101.959 230.740,99.489 225.800 C 94.308 215.441,88.000 202.445,88.000 202.129 C 88.000 201.921,87.392 200.503,86.649 198.976 C 83.869 193.260,83.346 191.794,81.601 184.800 C 80.803 181.600,81.370 165.528,82.371 163.000 C 82.545 162.560,83.015 161.120,83.415 159.800 C 86.651 149.123,95.424 138.047,105.175 132.330 C 107.973 130.689,112.861 128.321,114.200 127.958 C 114.860 127.779,116.390 127.344,117.600 126.990 C 118.810 126.637,120.790 126.170,122.000 125.954 C 123.210 125.737,125.010 125.413,126.000 125.234 C 128.445 124.790,134.553 124.779,137.000 125.214 M125.800 148.583 C 124.920 148.869,123.390 149.337,122.400 149.623 C 121.410 149.908,120.330 150.350,120.000 150.603 C 119.670 150.857,118.500 151.576,117.400 152.202 C 113.781 154.258,109.560 158.466,107.771 161.800 C 104.790 167.352,104.000 170.216,104.000 175.471 C 104.000 180.169,105.026 184.755,106.702 187.550 C 107.312 188.567,108.065 189.896,108.375 190.503 C 108.941 191.611,113.816 196.810,115.502 198.103 C 123.495 204.236,136.217 204.907,145.000 199.660 C 147.148 198.377,148.248 197.576,151.017 195.278 C 153.332 193.357,158.000 185.492,158.000 183.512 C 158.000 182.989,158.225 182.335,158.500 182.060 C 158.851 181.709,159.000 179.930,159.000 176.080 C 159.000 170.725,158.700 168.848,157.348 165.740 C 157.047 165.046,156.800 164.375,156.800 164.247 C 156.800 163.789,153.830 159.362,152.293 157.529 C 146.270 150.347,133.570 146.058,125.800 148.583 M214.704 185.132 C 215.100 185.384,215.186 189.472,215.104 204.226 L 215.000 223.000 210.600 223.000 L 206.200 223.000 206.096 204.400 C 206.038 194.170,206.078 185.575,206.183 185.300 C 206.402 184.730,213.840 184.584,214.704 185.132 M264.167 214.243 C 264.919 214.531,265.096 221.499,264.386 222.826 C 263.875 223.781,227.824 224.064,226.880 223.120 C 226.368 222.608,226.178 214.755,226.667 214.267 C 227.000 213.933,263.301 213.910,264.167 214.243 M281.000 233.000 L 281.000 251.800 276.500 251.913 L 272.000 252.026 272.000 233.000 L 272.000 213.974 276.500 214.087 L 281.000 214.200 281.000 233.000 M281.000 281.000 L 281.000 299.800 276.500 299.913 L 272.000 300.026 272.000 281.000 L 272.000 261.974 276.500 262.087 L 281.000 262.200 281.000 281.000 M215.913 294.500 L 215.800 299.000 197.000 299.000 L 178.200 299.000 178.087 294.500 L 177.974 290.000 197.000 290.000 L 216.026 290.000 215.913 294.500 M262.715 294.141 C 262.790 296.703,262.668 298.278,262.366 298.641 C 261.884 299.222,226.503 299.521,225.033 298.957 C 224.374 298.705,224.049 290.885,224.671 290.263 C 224.819 290.114,233.414 290.039,243.771 290.096 L 262.600 290.200 262.715 294.141 " stroke="none" fill="#545cfb" fill-rule="evenodd"></path></g></svg>