<svg id="svg" version="1.1" xmlns="http://www.w3.org/2000/svg" xmlns:xlink="http://www.w3.org/1999/xlink" width="400" height="400" viewBox="0, 0, 400,400"><g id="svgg"><path id="path0" d="M116.500 19.563 C 105.743 20.962,94.820 27.591,88.776 36.388 C 86.031 40.384,7.971 175.931,6.749 178.825 C 2.494 188.897,2.582 200.925,6.984 211.000 C 8.242 213.880,85.685 348.426,88.584 352.769 C 94.242 361.245,104.516 367.753,115.333 369.714 C 119.727 370.510,281.191 370.372,285.000 369.569 C 295.597 367.334,304.450 361.667,310.418 353.298 C 312.779 349.987,391.495 213.264,392.682 210.412 C 397.118 199.756,396.610 186.478,391.377 176.308 C 389.355 172.380,312.784 39.793,310.827 36.833 C 304.970 27.974,295.250 21.772,284.206 19.849 C 281.445 19.368,120.116 19.093,116.500 19.563 M276.665 30.012 C 287.426 31.145,297.752 37.117,303.735 45.667 C 304.904 47.338,368.369 156.962,378.263 174.401 C 386.262 188.500,386.086 201.183,377.685 215.946 C 367.658 233.568,305.652 340.957,304.443 342.796 C 299.340 350.559,289.969 356.903,280.667 358.894 C 276.954 359.688,123.592 359.852,119.667 359.066 C 110.265 357.183,101.847 351.974,96.210 344.551 C 94.535 342.345,21.853 216.679,19.249 211.487 C 13.926 200.872,14.077 187.564,19.638 177.167 C 22.608 171.613,94.216 47.641,95.497 45.833 C 101.701 37.083,111.764 31.137,122.247 30.029 C 126.097 29.622,272.807 29.605,276.665 30.012 M260.167 94.347 C 252.416 95.164,246.072 98.380,241.596 103.762 C 240.810 104.708,239.932 105.720,239.645 106.012 C 234.176 111.580,233.229 126.426,237.781 135.255 C 238.228 136.123,239.645 139.008,240.929 141.667 C 242.213 144.325,244.464 148.975,245.932 152.000 C 248.496 157.286,250.739 161.920,256.658 174.167 C 258.164 177.283,259.984 180.996,260.701 182.417 L 262.005 185.000 243.503 185.000 L 225.000 185.000 225.000 189.833 L 225.000 194.667 244.167 194.667 L 263.333 194.667 263.333 189.847 L 263.333 185.027 267.030 177.430 C 269.063 173.252,271.555 168.108,272.568 166.000 C 273.581 163.892,275.533 159.917,276.907 157.167 C 278.280 154.417,279.401 152.092,279.398 152.000 C 279.395 151.908,280.500 149.583,281.854 146.833 C 289.898 130.498,290.667 128.329,290.667 121.960 C 290.667 108.647,280.334 96.396,267.667 94.690 C 263.371 94.112,262.691 94.081,260.167 94.347 M266.367 107.371 C 280.302 111.928,282.013 129.224,269.183 135.831 C 264.709 138.134,257.850 137.655,254.340 134.793 C 251.907 132.809,251.147 132.023,249.919 130.214 C 242.420 119.171,253.862 103.281,266.367 107.371 M127.836 124.931 C 126.187 124.984,124.695 125.172,124.519 125.347 C 124.344 125.523,123.564 125.667,122.786 125.667 C 122.009 125.667,121.291 125.799,121.191 125.961 C 121.091 126.123,120.158 126.362,119.117 126.492 C 118.077 126.622,116.988 126.853,116.696 127.006 C 115.795 127.480,114.851 127.775,114.442 127.710 C 114.226 127.677,113.955 127.803,113.839 127.991 C 113.722 128.179,113.261 128.333,112.814 128.333 C 112.366 128.333,112.000 128.471,112.000 128.640 C 112.000 128.809,111.550 129.046,111.000 129.167 C 110.450 129.287,110.000 129.507,110.000 129.654 C 110.000 129.802,109.662 130.032,109.250 130.166 C 108.837 130.301,108.425 130.451,108.333 130.500 C 108.242 130.549,107.829 130.699,107.417 130.834 C 107.004 130.968,106.667 131.193,106.667 131.333 C 106.667 131.474,106.404 131.680,106.083 131.791 C 105.763 131.901,105.050 132.292,104.500 132.659 C 103.950 133.026,103.275 133.432,103.000 133.562 C 102.725 133.692,102.227 134.143,101.892 134.566 C 101.558 134.988,101.099 135.333,100.872 135.333 C 100.644 135.333,100.027 135.783,99.500 136.333 C 98.973 136.883,98.415 137.333,98.259 137.333 C 97.877 137.333,93.333 141.853,93.333 142.234 C 93.333 142.400,92.808 143.045,92.167 143.667 C 91.525 144.289,91.000 144.943,91.000 145.121 C 91.000 145.299,90.776 145.682,90.502 145.972 C 89.363 147.179,88.409 148.551,88.165 149.333 C 88.022 149.792,87.616 150.418,87.264 150.725 C 86.911 151.032,86.628 151.332,86.635 151.391 C 86.686 151.836,86.199 153.000,85.961 153.000 C 85.799 153.000,85.667 153.165,85.667 153.366 C 85.667 153.724,84.915 155.589,84.305 156.745 C 84.137 157.064,83.999 157.514,83.998 157.745 C 83.997 157.977,83.765 158.610,83.482 159.152 C 83.200 159.694,82.880 160.785,82.771 161.578 C 82.662 162.370,82.445 163.098,82.287 163.195 C 82.129 163.293,82.000 163.951,82.000 164.659 C 82.000 165.391,81.821 166.004,81.583 166.083 C 81.263 166.190,81.167 168.359,81.167 175.427 C 81.167 182.347,81.270 184.736,81.583 185.050 C 81.812 185.279,82.000 186.037,82.000 186.733 C 82.000 187.430,82.133 188.000,82.295 188.000 C 82.457 188.000,82.693 188.825,82.819 189.833 C 82.945 190.842,83.187 191.667,83.357 191.667 C 83.527 191.667,83.667 192.013,83.667 192.436 C 83.667 192.860,83.887 193.497,84.156 193.853 C 84.425 194.209,84.650 194.838,84.656 195.250 C 84.662 195.662,84.817 196.000,85.000 196.000 C 85.183 196.000,85.333 196.165,85.333 196.366 C 85.333 196.876,86.401 199.122,86.761 199.371 C 86.924 199.483,87.057 199.667,87.058 199.780 C 87.060 200.352,87.442 201.333,87.663 201.333 C 87.801 201.333,88.009 201.921,88.124 202.639 C 88.238 203.357,88.448 203.994,88.589 204.055 C 88.909 204.194,91.000 208.445,91.000 208.958 C 91.000 209.164,91.115 209.333,91.255 209.333 C 91.522 209.333,92.667 211.766,92.667 212.336 C 92.667 212.518,92.805 212.667,92.974 212.667 C 93.142 212.667,93.379 213.117,93.500 213.667 C 93.621 214.217,93.822 214.667,93.948 214.667 C 94.196 214.667,95.333 217.131,95.333 217.669 C 95.333 217.851,95.467 218.000,95.631 218.000 C 95.794 218.000,96.025 218.412,96.145 218.917 C 96.405 220.017,101.387 230.119,101.747 230.278 C 101.886 230.339,102.000 230.545,102.000 230.737 C 102.000 231.229,104.101 235.477,104.411 235.611 C 104.552 235.672,104.762 236.310,104.876 237.028 C 104.991 237.746,105.200 238.333,105.340 238.333 C 105.480 238.333,105.696 238.737,105.819 239.230 C 105.943 239.723,106.324 240.519,106.667 241.000 C 107.009 241.481,107.390 242.277,107.514 242.770 C 107.638 243.263,107.873 243.667,108.036 243.667 C 108.200 243.667,108.333 243.816,108.333 243.998 C 108.333 244.536,109.471 247.000,109.719 247.000 C 109.844 247.000,110.046 247.450,110.167 248.000 C 110.287 248.550,110.507 249.000,110.654 249.000 C 110.802 249.000,111.032 249.338,111.166 249.750 C 111.301 250.162,111.451 250.575,111.500 250.667 C 111.549 250.758,111.699 251.171,111.834 251.583 C 111.968 251.996,112.198 252.333,112.346 252.333 C 112.493 252.333,112.713 252.783,112.833 253.333 C 112.954 253.883,113.191 254.333,113.360 254.333 C 113.529 254.333,113.667 254.597,113.667 254.919 C 113.667 255.242,115.610 259.389,117.984 264.135 C 120.359 268.882,122.396 273.193,122.511 273.716 C 122.626 274.239,122.840 274.667,122.988 274.667 C 123.135 274.667,123.365 275.004,123.500 275.417 C 123.634 275.829,123.784 276.242,123.833 276.333 C 123.883 276.425,124.033 276.837,124.167 277.250 C 124.301 277.662,124.527 278.000,124.669 278.000 C 124.811 278.000,125.029 278.403,125.153 278.896 C 125.276 279.389,125.651 280.177,125.986 280.646 C 126.320 281.116,126.623 281.609,126.659 281.742 C 126.695 281.876,126.804 282.288,126.901 282.659 C 126.998 283.030,127.210 283.333,127.372 283.333 C 127.534 283.333,127.667 283.498,127.667 283.700 C 127.667 284.146,128.712 286.435,129.021 286.667 C 129.143 286.758,129.359 287.208,129.500 287.667 C 129.641 288.125,129.924 288.607,130.128 288.737 C 130.368 288.890,130.538 290.819,130.607 294.154 L 130.714 299.333 149.857 299.333 L 169.000 299.333 169.000 294.500 L 169.000 289.667 151.000 289.667 C 135.222 289.667,133.000 289.605,133.000 289.167 C 133.000 288.892,133.138 288.667,133.307 288.667 C 133.476 288.667,133.713 288.217,133.833 287.667 C 133.954 287.117,134.156 286.667,134.281 286.667 C 134.510 286.667,135.667 284.222,135.667 283.739 C 135.667 283.598,137.617 279.591,140.000 274.833 C 142.383 270.076,144.333 265.917,144.333 265.592 C 144.333 265.266,144.471 265.000,144.640 265.000 C 144.809 265.000,145.046 264.550,145.167 264.000 C 145.287 263.450,145.524 263.000,145.693 263.000 C 145.862 263.000,146.000 262.851,146.000 262.669 C 146.000 262.131,147.137 259.667,147.385 259.667 C 147.511 259.667,147.713 259.217,147.833 258.667 C 147.954 258.117,148.174 257.667,148.321 257.667 C 148.468 257.667,148.699 257.329,148.833 256.917 C 148.967 256.504,149.117 256.092,149.167 256.000 C 149.216 255.908,149.366 255.496,149.500 255.083 C 149.635 254.671,149.865 254.333,150.012 254.333 C 150.160 254.333,150.379 253.883,150.500 253.333 C 150.621 252.783,150.840 252.333,150.988 252.333 C 151.135 252.333,151.365 251.996,151.500 251.583 C 151.634 251.171,151.784 250.758,151.833 250.667 C 151.883 250.575,152.033 250.162,152.167 249.750 C 152.301 249.338,152.524 249.000,152.663 249.000 C 152.801 249.000,153.009 248.413,153.124 247.695 C 153.238 246.977,153.455 246.339,153.605 246.278 C 153.929 246.146,156.000 241.943,156.000 241.418 C 156.000 241.219,156.123 241.006,156.272 240.944 C 156.596 240.813,158.667 236.609,158.667 236.085 C 158.667 235.885,158.782 235.672,158.923 235.611 C 159.191 235.495,161.438 231.077,161.522 230.500 C 161.645 229.660,162.105 228.667,162.372 228.667 C 162.534 228.667,162.667 228.502,162.667 228.300 C 162.667 227.791,163.734 225.544,164.094 225.296 C 164.257 225.184,164.391 225.000,164.391 224.887 C 164.393 224.271,164.784 223.333,165.039 223.333 C 165.201 223.333,165.333 223.184,165.333 223.002 C 165.333 222.464,166.471 220.000,166.719 220.000 C 166.844 220.000,167.046 219.550,167.167 219.000 C 167.287 218.450,167.524 218.000,167.693 218.000 C 167.862 218.000,168.000 217.851,168.000 217.669 C 168.000 217.104,169.143 214.667,169.408 214.667 C 169.546 214.667,169.755 214.067,169.872 213.333 C 169.989 212.600,170.204 212.000,170.349 212.000 C 170.495 212.000,170.713 211.550,170.833 211.000 C 170.954 210.450,171.156 210.000,171.281 210.000 C 171.529 210.000,172.667 207.536,172.667 206.998 C 172.667 206.816,172.805 206.667,172.974 206.667 C 173.142 206.667,173.379 206.217,173.500 205.667 C 173.621 205.117,173.822 204.667,173.948 204.667 C 174.196 204.667,175.333 202.202,175.333 201.664 C 175.333 201.482,175.466 201.333,175.628 201.333 C 175.883 201.333,176.273 200.396,176.276 199.780 C 176.276 199.667,176.402 199.483,176.555 199.371 C 176.942 199.087,177.667 197.750,177.667 197.320 C 177.667 197.124,178.001 196.259,178.410 195.398 C 178.819 194.538,179.171 193.683,179.192 193.500 C 179.233 193.147,179.543 192.266,180.011 191.167 C 180.168 190.800,180.392 189.863,180.510 189.085 C 180.628 188.307,180.862 187.586,181.029 187.482 C 181.196 187.379,181.333 186.658,181.333 185.880 C 181.333 185.103,181.521 184.279,181.750 184.050 C 182.061 183.739,182.167 181.529,182.167 175.333 C 182.167 169.138,182.061 166.928,181.750 166.617 C 181.521 166.387,181.333 165.789,181.333 165.286 C 181.333 164.784,181.198 164.289,181.033 164.187 C 180.868 164.085,180.628 163.101,180.500 162.001 C 180.372 160.900,180.133 160.000,179.967 160.000 C 179.802 160.000,179.667 159.654,179.667 159.230 C 179.667 158.807,179.446 158.170,179.177 157.814 C 178.908 157.458,178.683 156.829,178.677 156.417 C 178.671 156.004,178.533 155.667,178.369 155.667 C 178.206 155.667,177.971 155.263,177.847 154.770 C 177.724 154.277,177.295 153.415,176.896 152.854 C 176.496 152.292,176.182 151.758,176.198 151.667 C 176.269 151.262,175.899 150.333,175.667 150.333 C 175.526 150.333,175.320 150.071,175.209 149.750 C 175.099 149.429,174.708 148.717,174.341 148.167 C 173.974 147.617,173.568 146.942,173.438 146.667 C 173.308 146.392,172.857 145.893,172.434 145.559 C 172.012 145.225,171.667 144.769,171.667 144.547 C 171.667 144.324,170.917 143.403,170.000 142.500 C 169.083 141.597,168.331 140.703,168.328 140.513 C 168.321 140.095,166.861 138.667,166.440 138.667 C 166.276 138.667,165.403 137.917,164.500 137.000 C 163.597 136.083,162.676 135.333,162.453 135.333 C 162.231 135.333,161.775 134.988,161.441 134.566 C 160.907 133.891,160.223 133.465,159.413 133.302 C 159.278 133.275,158.717 132.893,158.167 132.454 C 157.617 132.016,157.017 131.539,156.833 131.395 C 156.650 131.251,156.200 131.004,155.833 130.845 C 155.467 130.687,155.092 130.524,155.000 130.484 C 154.908 130.443,154.496 130.301,154.083 130.166 C 153.671 130.032,153.333 129.802,153.333 129.654 C 153.333 129.507,152.851 129.280,152.261 129.151 C 151.671 129.021,150.959 128.797,150.678 128.652 C 149.349 127.969,147.683 127.333,147.219 127.333 C 146.937 127.333,146.622 127.198,146.520 127.033 C 146.418 126.868,145.434 126.628,144.333 126.500 C 143.233 126.372,142.249 126.132,142.146 125.967 C 142.044 125.802,141.325 125.667,140.547 125.667 C 139.769 125.667,138.991 125.535,138.817 125.375 C 138.452 125.039,132.240 124.788,127.836 124.931 M137.383 148.752 C 137.502 148.942,137.835 149.007,138.122 148.896 C 138.410 148.786,138.734 148.839,138.842 149.015 C 138.951 149.190,139.480 149.333,140.020 149.333 C 140.559 149.333,141.000 149.483,141.000 149.667 C 141.000 149.850,141.165 150.000,141.366 150.000 C 141.812 150.000,144.101 151.045,144.333 151.354 C 144.425 151.477,144.863 151.690,145.308 151.829 C 146.204 152.109,146.393 152.244,148.615 154.196 C 149.468 154.945,150.433 155.654,150.758 155.772 C 151.083 155.889,151.445 156.251,151.562 156.576 C 151.680 156.901,152.361 157.842,153.076 158.667 C 154.827 160.688,154.881 160.767,155.174 161.692 C 155.314 162.137,155.714 162.749,156.064 163.053 C 156.413 163.357,156.786 164.145,156.893 164.803 C 157.000 165.461,157.211 166.000,157.362 166.000 C 157.513 166.000,157.726 166.563,157.836 167.250 C 157.946 167.938,158.178 168.760,158.352 169.079 C 158.525 169.397,158.667 170.101,158.667 170.642 C 158.667 171.184,158.817 171.720,159.000 171.833 C 159.188 171.949,159.333 173.552,159.333 175.500 C 159.333 177.448,159.188 179.051,159.000 179.167 C 158.817 179.280,158.667 179.955,158.667 180.667 C 158.667 181.378,158.531 182.045,158.365 182.147 C 158.198 182.250,157.959 183.084,157.833 184.000 C 157.707 184.917,157.468 185.667,157.302 185.667 C 157.136 185.667,157.000 185.831,157.000 186.033 C 157.000 186.433,155.981 188.731,155.684 189.000 C 155.411 189.247,154.707 190.407,154.368 191.167 C 154.204 191.533,153.680 192.197,153.202 192.641 C 152.724 193.086,152.333 193.566,152.333 193.709 C 152.333 194.061,149.971 196.333,149.605 196.333 C 149.445 196.333,148.861 196.848,148.309 197.477 C 147.757 198.105,146.862 198.717,146.319 198.836 C 145.777 198.956,145.333 199.174,145.333 199.321 C 145.333 199.468,145.071 199.677,144.750 199.785 C 144.122 199.996,142.938 200.706,142.667 201.035 C 142.575 201.146,141.938 201.341,141.250 201.467 C 140.563 201.593,140.000 201.840,140.000 202.015 C 140.000 202.190,139.475 202.333,138.833 202.333 C 138.192 202.333,137.667 202.495,137.667 202.692 C 137.667 202.904,137.126 203.012,136.348 202.956 C 135.622 202.903,134.922 202.967,134.792 203.097 C 134.662 203.227,133.256 203.333,131.667 203.333 C 130.078 203.333,128.671 203.227,128.541 203.097 C 128.411 202.967,127.711 202.903,126.986 202.956 C 126.207 203.012,125.667 202.904,125.667 202.692 C 125.667 202.495,125.142 202.333,124.500 202.333 C 123.858 202.333,123.333 202.203,123.333 202.043 C 123.333 201.883,122.733 201.656,122.000 201.539 C 121.267 201.421,120.667 201.195,120.667 201.035 C 120.667 200.793,119.474 200.307,119.037 200.371 C 118.966 200.382,118.816 200.265,118.704 200.112 C 118.457 199.775,117.409 199.106,116.500 198.704 C 116.133 198.542,115.548 198.093,115.198 197.705 C 114.849 197.317,114.444 197.000,114.297 197.000 C 113.594 197.000,108.561 191.247,108.170 189.997 C 108.027 189.540,107.818 189.092,107.705 189.000 C 107.376 188.732,106.664 187.550,106.451 186.917 C 106.344 186.596,106.140 186.333,105.999 186.333 C 105.858 186.333,105.642 185.662,105.519 184.841 C 105.396 184.020,105.153 183.262,104.981 183.155 C 104.808 183.048,104.667 182.370,104.667 181.647 C 104.667 180.924,104.517 180.333,104.333 180.333 C 104.127 180.333,104.000 178.562,104.000 175.686 C 104.000 172.948,104.137 170.955,104.333 170.833 C 104.517 170.720,104.667 170.195,104.667 169.667 C 104.667 169.138,104.817 168.613,105.000 168.500 C 105.183 168.387,105.333 167.927,105.333 167.479 C 105.333 167.031,105.633 166.105,106.000 165.420 C 106.367 164.736,106.667 163.987,106.667 163.755 C 106.667 163.523,106.786 163.333,106.932 163.333 C 107.077 163.333,107.469 162.672,107.802 161.864 C 108.136 161.057,108.991 159.826,109.704 159.130 C 110.417 158.434,111.000 157.714,111.000 157.530 C 111.000 157.069,113.382 154.667,113.839 154.667 C 114.042 154.667,114.640 154.217,115.167 153.667 C 115.694 153.117,116.322 152.667,116.562 152.667 C 116.803 152.667,117.000 152.529,117.000 152.360 C 117.000 152.191,117.450 151.954,118.000 151.833 C 118.550 151.713,119.000 151.476,119.000 151.307 C 119.000 151.138,119.207 151.000,119.459 151.000 C 119.712 151.000,120.105 150.775,120.333 150.500 C 120.562 150.225,121.105 150.000,121.541 150.000 C 121.977 150.000,122.333 149.861,122.333 149.691 C 122.333 149.521,123.158 149.278,124.167 149.152 C 125.175 149.026,126.000 148.797,126.000 148.642 C 126.000 148.017,136.989 148.123,137.383 148.752 M205.667 204.167 L 205.667 223.333 210.500 223.333 L 215.333 223.333 215.333 204.167 L 215.333 185.000 210.500 185.000 L 205.667 185.000 205.667 204.167 M226.333 218.833 L 226.333 223.667 245.500 223.667 L 264.667 223.667 264.667 218.833 L 264.667 214.000 245.500 214.000 L 226.333 214.000 226.333 218.833 M271.667 233.167 L 271.667 252.333 276.500 252.333 L 281.333 252.333 281.333 233.167 L 281.333 214.000 276.500 214.000 L 271.667 214.000 271.667 233.167 M271.667 280.833 L 271.667 300.000 276.500 300.000 L 281.333 300.000 281.333 280.833 L 281.333 261.667 276.500 261.667 L 271.667 261.667 271.667 280.833 M177.667 294.500 L 177.667 299.333 196.833 299.333 L 216.000 299.333 216.000 294.500 L 216.000 289.667 196.833 289.667 L 177.667 289.667 177.667 294.500 M224.333 294.500 L 224.333 299.333 243.500 299.333 L 262.667 299.333 262.667 294.500 L 262.667 289.667 243.500 289.667 L 224.333 289.667 224.333 294.500 " stroke="none" fill="#fbfbfc" fill-rule="evenodd"></path><path id="path1" d="M122.247 30.029 C 111.764 31.137,101.701 37.083,95.497 45.833 C 94.216 47.641,22.608 171.613,19.638 177.167 C 14.077 187.564,13.926 200.872,19.249 211.487 C 21.853 216.679,94.535 342.345,96.210 344.551 C 101.847 351.974,110.265 357.183,119.667 359.066 C 123.592 359.852,276.954 359.688,280.667 358.894 C 289.969 356.903,299.340 350.559,304.443 342.796 C 305.652 340.957,367.658 233.568,377.685 215.946 C 386.086 201.183,386.262 188.500,378.263 174.401 C 368.369 156.962,304.904 47.338,303.735 45.667 C 297.752 37.117,287.426 31.145,276.665 30.012 C 272.807 29.605,126.097 29.622,122.247 30.029 M267.667 94.690 C 280.334 96.396,290.667 108.647,290.667 121.960 C 290.667 128.329,289.898 130.498,281.854 146.833 C 280.500 149.583,279.395 151.908,279.398 152.000 C 279.401 152.092,278.280 154.417,276.907 157.167 C 275.533 159.917,273.581 163.892,272.568 166.000 C 271.555 168.108,269.063 173.252,267.030 177.430 L 263.333 185.027 263.333 189.847 L 263.333 194.667 244.167 194.667 L 225.000 194.667 225.000 189.833 L 225.000 185.000 243.503 185.000 L 262.005 185.000 260.701 182.417 C 259.984 180.996,258.164 177.283,256.658 174.167 C 250.739 161.920,248.496 157.286,245.932 152.000 C 244.464 148.975,242.213 144.325,240.929 141.667 C 239.645 139.008,238.228 136.123,237.781 135.255 C 233.229 126.426,234.176 111.580,239.645 106.012 C 239.932 105.720,240.810 104.708,241.596 103.762 C 244.916 99.770,251.351 95.806,255.893 94.956 C 260.742 94.048,262.589 94.007,267.667 94.690 M259.167 107.245 C 247.387 110.211,243.409 125.522,252.425 133.191 C 254.744 135.164,255.145 135.437,256.971 136.283 C 264.955 139.980,275.113 134.612,277.504 125.432 C 280.175 115.177,269.544 104.632,259.167 107.245 M138.817 125.375 C 138.991 125.535,139.769 125.667,140.547 125.667 C 141.325 125.667,142.044 125.802,142.146 125.967 C 142.249 126.132,143.233 126.372,144.333 126.500 C 145.434 126.628,146.418 126.868,146.520 127.033 C 146.622 127.198,146.937 127.333,147.219 127.333 C 147.683 127.333,149.349 127.969,150.678 128.652 C 150.959 128.797,151.671 129.021,152.261 129.151 C 152.851 129.280,153.333 129.507,153.333 129.654 C 153.333 129.802,153.671 130.032,154.083 130.166 C 154.496 130.301,154.908 130.443,155.000 130.484 C 155.092 130.524,155.467 130.687,155.833 130.845 C 156.200 131.004,156.650 131.251,156.833 131.395 C 157.017 131.539,157.617 132.016,158.167 132.454 C 158.717 132.893,159.278 133.275,159.413 133.302 C 160.223 133.465,160.907 133.891,161.441 134.566 C 161.775 134.988,162.231 135.333,162.453 135.333 C 162.676 135.333,163.597 136.083,164.500 137.000 C 165.403 137.917,166.276 138.667,166.440 138.667 C 166.861 138.667,168.321 140.095,168.328 140.513 C 168.331 140.703,169.083 141.597,170.000 142.500 C 170.917 143.403,171.667 144.324,171.667 144.547 C 171.667 144.769,172.012 145.225,172.434 145.559 C 172.857 145.893,173.308 146.392,173.438 146.667 C 173.568 146.942,173.974 147.617,174.341 148.167 C 174.708 148.717,175.099 149.429,175.209 149.750 C 175.320 150.071,175.526 150.333,175.667 150.333 C 175.899 150.333,176.269 151.262,176.198 151.667 C 176.182 151.758,176.496 152.292,176.896 152.854 C 177.295 153.415,177.724 154.277,177.847 154.770 C 177.971 155.263,178.206 155.667,178.369 155.667 C 178.533 155.667,178.671 156.004,178.677 156.417 C 178.683 156.829,178.908 157.458,179.177 157.814 C 179.446 158.170,179.667 158.807,179.667 159.230 C 179.667 159.654,179.802 160.000,179.967 160.000 C 180.133 160.000,180.372 160.900,180.500 162.001 C 180.628 163.101,180.868 164.085,181.033 164.187 C 181.198 164.289,181.333 164.784,181.333 165.286 C 181.333 165.789,181.521 166.387,181.750 166.617 C 182.061 166.928,182.167 169.138,182.167 175.333 C 182.167 181.529,182.061 183.739,181.750 184.050 C 181.521 184.279,181.333 185.103,181.333 185.880 C 181.333 186.658,181.196 187.379,181.029 187.482 C 180.862 187.586,180.628 188.307,180.510 189.085 C 180.392 189.863,180.168 190.800,180.011 191.167 C 179.543 192.266,179.233 193.147,179.192 193.500 C 179.171 193.683,178.819 194.538,178.410 195.398 C 178.001 196.259,177.667 197.124,177.667 197.320 C 177.667 197.750,176.942 199.087,176.555 199.371 C 176.402 199.483,176.276 199.667,176.276 199.780 C 176.273 200.396,175.883 201.333,175.628 201.333 C 175.466 201.333,175.333 201.482,175.333 201.664 C 175.333 202.202,174.196 204.667,173.948 204.667 C 173.822 204.667,173.621 205.117,173.500 205.667 C 173.379 206.217,173.142 206.667,172.974 206.667 C 172.805 206.667,172.667 206.816,172.667 206.998 C 172.667 207.536,171.529 210.000,171.281 210.000 C 171.156 210.000,170.954 210.450,170.833 211.000 C 170.713 211.550,170.495 212.000,170.349 212.000 C 170.204 212.000,169.989 212.600,169.872 213.333 C 169.755 214.067,169.546 214.667,169.408 214.667 C 169.143 214.667,168.000 217.104,168.000 217.669 C 168.000 217.851,167.862 218.000,167.693 218.000 C 167.524 218.000,167.287 218.450,167.167 219.000 C 167.046 219.550,166.844 220.000,166.719 220.000 C 166.471 220.000,165.333 222.464,165.333 223.002 C 165.333 223.184,165.201 223.333,165.039 223.333 C 164.784 223.333,164.393 224.271,164.391 224.887 C 164.391 225.000,164.257 225.184,164.094 225.296 C 163.734 225.544,162.667 227.791,162.667 228.300 C 162.667 228.502,162.534 228.667,162.372 228.667 C 162.105 228.667,161.645 229.660,161.522 230.500 C 161.438 231.077,159.191 235.495,158.923 235.611 C 158.782 235.672,158.667 235.885,158.667 236.085 C 158.667 236.609,156.596 240.813,156.272 240.944 C 156.123 241.006,156.000 241.219,156.000 241.418 C 156.000 241.943,153.929 246.146,153.605 246.278 C 153.455 246.339,153.238 246.977,153.124 247.695 C 153.009 248.413,152.801 249.000,152.663 249.000 C 152.524 249.000,152.301 249.338,152.167 249.750 C 152.033 250.162,151.883 250.575,151.833 250.667 C 151.784 250.758,151.634 251.171,151.500 251.583 C 151.365 251.996,151.135 252.333,150.988 252.333 C 150.840 252.333,150.621 252.783,150.500 253.333 C 150.379 253.883,150.160 254.333,150.012 254.333 C 149.865 254.333,149.635 254.671,149.500 255.083 C 149.366 255.496,149.216 255.908,149.167 256.000 C 149.117 256.092,148.967 256.504,148.833 256.917 C 148.699 257.329,148.468 257.667,148.321 257.667 C 148.174 257.667,147.954 258.117,147.833 258.667 C 147.713 259.217,147.511 259.667,147.385 259.667 C 147.137 259.667,146.000 262.131,146.000 262.669 C 146.000 262.851,145.862 263.000,145.693 263.000 C 145.524 263.000,145.287 263.450,145.167 264.000 C 145.046 264.550,144.809 265.000,144.640 265.000 C 144.471 265.000,144.333 265.266,144.333 265.592 C 144.333 265.917,142.383 270.076,140.000 274.833 C 137.617 279.591,135.667 283.598,135.667 283.739 C 135.667 284.222,134.510 286.667,134.281 286.667 C 134.156 286.667,133.954 287.117,133.833 287.667 C 133.713 288.217,133.476 288.667,133.307 288.667 C 133.138 288.667,133.000 288.892,133.000 289.167 C 133.000 289.605,135.222 289.667,151.000 289.667 L 169.000 289.667 169.000 294.500 L 169.000 299.333 149.857 299.333 L 130.714 299.333 130.607 294.154 C 130.538 290.819,130.368 288.890,130.128 288.737 C 129.924 288.607,129.641 288.125,129.500 287.667 C 129.359 287.208,129.143 286.758,129.021 286.667 C 128.712 286.435,127.667 284.146,127.667 283.700 C 127.667 283.498,127.534 283.333,127.372 283.333 C 127.210 283.333,126.998 283.030,126.901 282.659 C 126.804 282.288,126.695 281.876,126.659 281.742 C 126.623 281.609,126.320 281.116,125.986 280.646 C 125.651 280.177,125.276 279.389,125.153 278.896 C 125.029 278.403,124.811 278.000,124.669 278.000 C 124.527 278.000,124.301 277.662,124.167 277.250 C 124.033 276.837,123.883 276.425,123.833 276.333 C 123.784 276.242,123.634 275.829,123.500 275.417 C 123.365 275.004,123.135 274.667,122.988 274.667 C 122.840 274.667,122.626 274.239,122.511 273.716 C 122.396 273.193,120.359 268.882,117.984 264.135 C 115.610 259.389,113.667 255.242,113.667 254.919 C 113.667 254.597,113.529 254.333,113.360 254.333 C 113.191 254.333,112.954 253.883,112.833 253.333 C 112.713 252.783,112.493 252.333,112.346 252.333 C 112.198 252.333,111.968 251.996,111.834 251.583 C 111.699 251.171,111.549 250.758,111.500 250.667 C 111.451 250.575,111.301 250.162,111.166 249.750 C 111.032 249.338,110.802 249.000,110.654 249.000 C 110.507 249.000,110.287 248.550,110.167 248.000 C 110.046 247.450,109.844 247.000,109.719 247.000 C 109.471 247.000,108.333 244.536,108.333 243.998 C 108.333 243.816,108.200 243.667,108.036 243.667 C 107.873 243.667,107.638 243.263,107.514 242.770 C 107.390 242.277,107.009 241.481,106.667 241.000 C 106.324 240.519,105.943 239.723,105.819 239.230 C 105.696 238.737,105.480 238.333,105.340 238.333 C 105.200 238.333,104.991 237.746,104.876 237.028 C 104.762 236.310,104.552 235.672,104.411 235.611 C 104.101 235.477,102.000 231.229,102.000 230.737 C 102.000 230.545,101.886 230.339,101.747 230.278 C 101.387 230.119,96.405 220.017,96.145 218.917 C 96.025 218.412,95.794 218.000,95.631 218.000 C 95.467 218.000,95.333 217.851,95.333 217.669 C 95.333 217.131,94.196 214.667,93.948 214.667 C 93.822 214.667,93.621 214.217,93.500 213.667 C 93.379 213.117,93.142 212.667,92.974 212.667 C 92.805 212.667,92.667 212.518,92.667 212.336 C 92.667 211.766,91.522 209.333,91.255 209.333 C 91.115 209.333,91.000 209.164,91.000 208.958 C 91.000 208.445,88.909 204.194,88.589 204.055 C 88.448 203.994,88.238 203.357,88.124 202.639 C 88.009 201.921,87.801 201.333,87.663 201.333 C 87.442 201.333,87.060 200.352,87.058 199.780 C 87.057 199.667,86.924 199.483,86.761 199.371 C 86.401 199.122,85.333 196.876,85.333 196.366 C 85.333 196.165,85.183 196.000,85.000 196.000 C 84.817 196.000,84.662 195.662,84.656 195.250 C 84.650 194.838,84.425 194.209,84.156 193.853 C 83.887 193.497,83.667 192.860,83.667 192.436 C 83.667 192.013,83.527 191.667,83.357 191.667 C 83.187 191.667,82.945 190.842,82.819 189.833 C 82.693 188.825,82.457 188.000,82.295 188.000 C 82.133 188.000,82.000 187.430,82.000 186.733 C 82.000 186.037,81.812 185.279,81.583 185.050 C 81.270 184.736,81.167 182.347,81.167 175.427 C 81.167 168.359,81.263 166.190,81.583 166.083 C 81.821 166.004,82.000 165.391,82.000 164.659 C 82.000 163.951,82.129 163.293,82.287 163.195 C 82.445 163.098,82.662 162.370,82.771 161.578 C 82.880 160.785,83.200 159.694,83.482 159.152 C 83.765 158.610,83.997 157.977,83.998 157.745 C 83.999 157.514,84.137 157.064,84.305 156.745 C 84.915 155.589,85.667 153.724,85.667 153.366 C 85.667 153.165,85.799 153.000,85.961 153.000 C 86.199 153.000,86.686 151.836,86.635 151.391 C 86.628 151.332,86.911 151.032,87.264 150.725 C 87.616 150.418,88.022 149.792,88.165 149.333 C 88.409 148.551,89.363 147.179,90.502 145.972 C 90.776 145.682,91.000 145.299,91.000 145.121 C 91.000 144.943,91.525 144.289,92.167 143.667 C 92.808 143.045,93.333 142.400,93.333 142.234 C 93.333 141.853,97.877 137.333,98.259 137.333 C 98.415 137.333,98.973 136.883,99.500 136.333 C 100.027 135.783,100.644 135.333,100.872 135.333 C 101.099 135.333,101.558 134.988,101.892 134.566 C 102.227 134.143,102.725 133.692,103.000 133.562 C 103.275 133.432,103.950 133.026,104.500 132.659 C 105.050 132.292,105.763 131.901,106.083 131.791 C 106.404 131.680,106.667 131.474,106.667 131.333 C 106.667 131.193,107.004 130.968,107.417 130.834 C 107.829 130.699,108.242 130.549,108.333 130.500 C 108.425 130.451,108.837 130.301,109.250 130.166 C 109.662 130.032,110.000 129.802,110.000 129.654 C 110.000 129.507,110.450 129.287,111.000 129.167 C 111.550 129.046,112.000 128.809,112.000 128.640 C 112.000 128.471,112.366 128.333,112.814 128.333 C 113.261 128.333,113.722 128.179,113.839 127.991 C 113.955 127.803,114.226 127.677,114.442 127.710 C 114.851 127.775,115.795 127.480,116.696 127.006 C 116.988 126.853,118.077 126.622,119.117 126.492 C 120.158 126.362,121.091 126.123,121.191 125.961 C 121.291 125.799,122.009 125.667,122.786 125.667 C 123.564 125.667,124.344 125.523,124.519 125.347 C 125.135 124.732,138.146 124.756,138.817 125.375 M128.750 148.263 C 127.237 148.317,126.000 148.487,126.000 148.642 C 126.000 148.797,125.175 149.026,124.167 149.152 C 123.158 149.278,122.333 149.521,122.333 149.691 C 122.333 149.861,121.977 150.000,121.541 150.000 C 121.105 150.000,120.562 150.225,120.333 150.500 C 120.105 150.775,119.712 151.000,119.459 151.000 C 119.207 151.000,119.000 151.138,119.000 151.307 C 119.000 151.476,118.550 151.713,118.000 151.833 C 117.450 151.954,117.000 152.191,117.000 152.360 C 117.000 152.529,116.803 152.667,116.562 152.667 C 116.322 152.667,115.694 153.117,115.167 153.667 C 114.640 154.217,114.042 154.667,113.839 154.667 C 113.382 154.667,111.000 157.069,111.000 157.530 C 111.000 157.714,110.417 158.434,109.704 159.130 C 108.991 159.826,108.136 161.057,107.802 161.864 C 107.469 162.672,107.077 163.333,106.932 163.333 C 106.786 163.333,106.667 163.523,106.667 163.755 C 106.667 163.987,106.367 164.736,106.000 165.420 C 105.633 166.105,105.333 167.031,105.333 167.479 C 105.333 167.927,105.183 168.387,105.000 168.500 C 104.817 168.613,104.667 169.138,104.667 169.667 C 104.667 170.195,104.517 170.720,104.333 170.833 C 104.137 170.955,104.000 172.948,104.000 175.686 C 104.000 178.562,104.127 180.333,104.333 180.333 C 104.517 180.333,104.667 180.924,104.667 181.647 C 104.667 182.370,104.808 183.048,104.981 183.155 C 105.153 183.262,105.396 184.020,105.519 184.841 C 105.642 185.662,105.858 186.333,105.999 186.333 C 106.140 186.333,106.344 186.596,106.451 186.917 C 106.664 187.550,107.376 188.732,107.705 189.000 C 107.818 189.092,108.027 189.540,108.170 189.997 C 108.561 191.247,113.594 197.000,114.297 197.000 C 114.444 197.000,114.849 197.317,115.198 197.705 C 115.548 198.093,116.133 198.542,116.500 198.704 C 117.409 199.106,118.457 199.775,118.704 200.112 C 118.816 200.265,118.966 200.382,119.037 200.371 C 119.474 200.307,120.667 200.793,120.667 201.035 C 120.667 201.195,121.267 201.421,122.000 201.539 C 122.733 201.656,123.333 201.883,123.333 202.043 C 123.333 202.203,123.858 202.333,124.500 202.333 C 125.142 202.333,125.667 202.495,125.667 202.692 C 125.667 202.904,126.207 203.012,126.986 202.956 C 127.711 202.903,128.411 202.967,128.541 203.097 C 128.671 203.227,130.078 203.333,131.667 203.333 C 133.256 203.333,134.662 203.227,134.792 203.097 C 134.922 202.967,135.622 202.903,136.348 202.956 C 137.126 203.012,137.667 202.904,137.667 202.692 C 137.667 202.495,138.192 202.333,138.833 202.333 C 139.475 202.333,140.000 202.190,140.000 202.015 C 140.000 201.840,140.563 201.593,141.250 201.467 C 141.938 201.341,142.575 201.146,142.667 201.035 C 142.938 200.706,144.122 199.996,144.750 199.785 C 145.071 199.677,145.333 199.468,145.333 199.321 C 145.333 199.174,145.777 198.956,146.319 198.836 C 146.862 198.717,147.757 198.105,148.309 197.477 C 148.861 196.848,149.445 196.333,149.605 196.333 C 149.971 196.333,152.333 194.061,152.333 193.709 C 152.333 193.566,152.724 193.086,153.202 192.641 C 153.680 192.197,154.204 191.533,154.368 191.167 C 154.707 190.407,155.411 189.247,155.684 189.000 C 155.981 188.731,157.000 186.433,157.000 186.033 C 157.000 185.831,157.136 185.667,157.302 185.667 C 157.468 185.667,157.707 184.917,157.833 184.000 C 157.959 183.084,158.198 182.250,158.365 182.147 C 158.531 182.045,158.667 181.378,158.667 180.667 C 158.667 179.955,158.817 179.280,159.000 179.167 C 159.188 179.051,159.333 177.448,159.333 175.500 C 159.333 173.552,159.188 171.949,159.000 171.833 C 158.817 171.720,158.667 171.184,158.667 170.642 C 158.667 170.101,158.525 169.397,158.352 169.079 C 158.178 168.760,157.946 167.938,157.836 167.250 C 157.726 166.563,157.513 166.000,157.362 166.000 C 157.211 166.000,157.000 165.461,156.893 164.803 C 156.786 164.145,156.413 163.357,156.064 163.053 C 155.714 162.749,155.314 162.137,155.174 161.692 C 154.881 160.767,154.827 160.688,153.076 158.667 C 152.361 157.842,151.680 156.901,151.562 156.576 C 151.445 156.251,151.083 155.889,150.758 155.772 C 150.433 155.654,149.468 154.945,148.615 154.196 C 146.393 152.244,146.204 152.109,145.308 151.829 C 144.863 151.690,144.425 151.477,144.333 151.354 C 144.101 151.045,141.812 150.000,141.366 150.000 C 141.165 150.000,141.000 149.850,141.000 149.667 C 141.000 149.483,140.559 149.333,140.020 149.333 C 139.480 149.333,138.951 149.190,138.842 149.015 C 138.734 148.839,138.410 148.786,138.122 148.896 C 137.835 149.007,137.502 148.942,137.383 148.752 C 137.138 148.361,132.860 148.119,128.750 148.263 M215.333 204.167 L 215.333 223.333 210.500 223.333 L 205.667 223.333 205.667 204.167 L 205.667 185.000 210.500 185.000 L 215.333 185.000 215.333 204.167 M264.667 218.833 L 264.667 223.667 245.500 223.667 L 226.333 223.667 226.333 218.833 L 226.333 214.000 245.500 214.000 L 264.667 214.000 264.667 218.833 M281.333 233.167 L 281.333 252.333 276.500 252.333 L 271.667 252.333 271.667 233.167 L 271.667 214.000 276.500 214.000 L 281.333 214.000 281.333 233.167 M281.333 280.833 L 281.333 300.000 276.500 300.000 L 271.667 300.000 271.667 280.833 L 271.667 261.667 276.500 261.667 L 281.333 261.667 281.333 280.833 M216.000 294.500 L 216.000 299.333 196.833 299.333 L 177.667 299.333 177.667 294.500 L 177.667 289.667 196.833 289.667 L 216.000 289.667 216.000 294.500 M262.667 294.500 L 262.667 299.333 243.500 299.333 L 224.333 299.333 224.333 294.500 L 224.333 289.667 243.500 289.667 L 262.667 289.667 262.667 294.500 " stroke="none" fill="#7c4cfc" fill-rule="evenodd"></path></g></svg>