<svg width="1280" height="364" xmlns="http://www.w3.org/2000/svg" preserveAspectRatio="xMidYMid meet">
 <metadata>Created by potrace 1.15, written by Peter Selinger 2001-2017</metadata>

 <g>
  <title>background</title>
  <rect fill="none" id="canvas_background" height="402" width="582" y="-1" x="-1"/>
 </g>
 <g>
  <title>Layer 1</title>
  <g id="svg_1" fill="#000000" transform="translate(0, 364) scale(0.1, -0.1)">
   <path id="svg_2" d="m3490,3395l0,-245l260,0l260,0l0,245l0,245l-260,0l-260,0l0,-245z"/>
   <path id="svg_3" d="m6710,2260l0,-1382l643,5c704,4 738,7 919,67c170,57 289,131 399,247c254,270 374,692 340,1197c-24,346 -88,570 -223,777c-132,203 -311,343 -523,408c-161,50 -217,54 -907,58l-648,5l0,-1382zm1270,883c176,-45 285,-133 364,-293c71,-145 87,-233 93,-527c7,-350 -17,-521 -99,-692c-48,-101 -111,-166 -201,-210c-124,-61 -150,-64 -529,-69l-348,-4l0,912l0,913l323,-6c273,-4 333,-8 397,-24z"/>
   <path id="svg_4" d="m5152,2920c-345,-36 -544,-183 -657,-484c-14,-36 -22,-66 -19,-66c9,0 437,-81 454,-86c11,-3 24,13 44,53c42,86 80,129 144,160c54,27 64,28 197,28c168,0 225,-15 278,-74c45,-50 61,-99 61,-190l1,-75l-81,-27c-76,-25 -159,-45 -484,-114c-162,-35 -298,-78 -383,-123c-218,-113 -328,-371 -272,-635c45,-213 212,-377 440,-433c104,-26 315,-23 420,5c110,30 225,89 323,166c93,74 85,75 112,-26c7,-24 19,-61 27,-81l15,-38l258,0l257,0l-33,83c-77,190 -84,265 -84,889c0,492 -5,597 -36,704c-50,175 -230,305 -482,349c-106,19 -386,27 -500,15zm508,-1187c-1,-266 -38,-363 -172,-453c-75,-50 -171,-80 -252,-80c-106,1 -183,41 -241,125c-97,140 -52,302 102,372c40,18 480,138 556,152c4,0 7,-52 7,-116z"/>
   <path id="svg_5" d="m10111,2920c-370,-52 -657,-331 -742,-720c-55,-253 -42,-554 32,-771c80,-235 239,-417 444,-510c151,-68 378,-101 570,-81c341,36 559,181 700,466c30,60 54,111 52,112c-1,1 -110,21 -242,43c-132,23 -249,43 -260,46c-17,3 -24,-4 -37,-43c-58,-162 -178,-240 -354,-229c-105,6 -175,37 -253,112c-85,81 -128,178 -146,328l-7,57l666,0l667,0l-6,113c-22,407 -97,632 -272,818c-157,166 -364,254 -626,263c-67,3 -151,1 -186,-4zm321,-422c139,-64 237,-230 238,-400l0,-48l-395,0l-395,0l0,38c1,99 49,237 107,306c40,48 120,104 171,121c74,23 203,15 274,-17z"/>
   <path id="svg_6" d="m1337,2273c134,-335 315,-785 401,-1000l157,-393l236,0l237,0l37,93c26,65 698,1758 752,1895c4,9 -53,12 -265,12l-270,0l-10,-27c-5,-16 -97,-264 -204,-553c-108,-289 -213,-580 -233,-647c-21,-68 -41,-123 -45,-123c-3,0 -29,73 -57,161c-28,89 -136,393 -240,675l-188,514l-276,0l-277,0l245,-607z"/>
   <path id="svg_7" d="m3490,1880l0,-1000l260,0l260,0l0,1000l0,1000l-260,0l-260,0l0,-1000z"/>
  </g>
  <path id="svg_8" d="m135.5,119.950012" opacity="0.5" stroke-width="1.5" stroke="#fff" fill="#a43dff"/>
  <text style="cursor: move;" font-weight="bold" transform="matrix(16.051, 0, 0, 15.9552, -17540.7, -4495.12)" xml:space="preserve" text-anchor="start" font-family="Oswald, sans-serif" font-size="24" id="svg_11" y="298.887337" x="1099.5" stroke-width="0" stroke="#000000" fill="#912dfc">viaDe</text>
 </g>
</svg>