<svg width="88" height="25" xmlns="http://www.w3.org/2000/svg">
 <!-- Generator: Sketch 52.3 (67297) - http://www.bohemiancoding.com/sketch -->
 <title>logo/inrupt</title>
 <desc>Created with Sketch.</desc>

 <g>
  <title>background</title>
  <rect fill="none" id="canvas_background" height="402" width="582" y="-1" x="-1"/>
 </g>
 <g>
  <title>Layer 1</title>
  <g fill-rule="evenodd" fill="none" id="Symbols">
   <g id="nav/Bar-Global-v2"/>
  </g>
  <text font-weight="bold" transform="matrix(1.31832, 0, 0, 1.28705, -45.0428, 3.99048)" xml:space="preserve" text-anchor="start" font-family="Arvo, sans-serif" font-size="24" id="svg_1" y="15.894533" x="35.935945" stroke-width="0" stroke="#000000" fill="#a947ff">v aDe</text>
  <path id="svg_2" d="m24.463232,0.249073c-1.589111,0 -2.877542,1.016157 -2.877542,2.269552c0,1.253695 2.877542,5.483517 2.877542,5.483517s2.877657,-4.229823 2.877657,-5.483517c0,-1.253395 -1.288086,-2.269552 -2.877657,-2.269552zm0,3.35409c-0.759281,0 -1.375029,-0.485387 -1.375029,-1.084538s0.615747,-1.084542 1.375029,-1.084542s1.375139,0.485683 1.375139,1.084542s-0.61578,1.084538 -1.375139,1.084538z" fill-opacity="null" stroke-opacity="null" stroke-width="0" stroke="#000000" fill="#a947ff"/>
  <path d="m5.070112,6.149446c0,0.073801 -0.016546,0.288032 -0.073801,0.442804c-0.105572,0.285388 -0.147602,0.590406 -0.147602,0.738008c0,0.073801 -0.049682,-0.076612 -0.147602,-0.811808c-0.059267,-0.444983 -0.268687,-0.816296 -0.369004,-1.328413c-0.116989,-0.597226 -0.198777,-1.146952 -0.295203,-1.107011c-0.136366,0.056485 0.20958,1.109145 0.295203,1.549816c0.129776,0.667918 0.258176,1.397635 0.295203,1.845018c0.054784,0.661943 -0.073801,1.180811 -0.073801,1.697417l0,0.295203l0,-0.147602l0,-0.221402" id="svg_3" fill-opacity="null" stroke-opacity="null" stroke-width="0" stroke="#000000" fill="none"/>
  <path d="m4.332104,7.256458c-0.073801,0.369003 -0.038766,0.818038 -0.147601,1.328413c-0.112052,0.525462 -0.295203,1.254612 -0.295203,1.845018c0,0.738007 0,1.254612 0,1.697416c0,0.295203 0.021616,0.421189 0.073801,0.369004c0.052185,-0.052185 0,-0.369004 -0.073801,-0.88561l-0.295203,-0.369003" id="svg_4" fill-opacity="null" stroke-opacity="null" stroke-width="0" stroke="#000000" fill="none"/>
  <path d="m5.365314,3.197417c0,0.147601 0.263123,0.417669 0.516605,0.885609c0.267707,0.494199 0.522921,1.10435 0.738008,1.623616c0.15209,0.367177 0.379621,0.878711 0.664207,1.328413c0.230118,0.363632 0.267426,0.614385 0.369004,0.590405c0.227135,-0.05362 -0.073801,-0.811808 -0.369004,-1.402214c-0.369004,-0.738008 -0.705747,-1.374933 -1.03321,-1.918819c-0.25536,-0.424129 -0.221402,-0.738007 -0.295203,-1.03321l0,-0.073801" id="svg_6" fill-opacity="null" stroke-opacity="null" stroke-width="0" stroke="#000000" fill="none"/>
  <path d="m9.645758,3.787823c0.147601,0.221402 0.497243,0.607925 1.03321,1.180812c0.35652,0.381079 0.695811,0.843052 1.033211,1.254613c0.198508,0.242141 0.312518,0.380239 0.369003,0.516605c0.039941,0.096426 0.119359,0.153219 0.147601,0.221402c0.039941,0.096426 0.147602,0.221402 0.147602,0.295203l0,0.073801" id="svg_7" fill-opacity="null" stroke-opacity="null" stroke-width="0" stroke="#000000" fill="none"/>
  <path d="m15.328414,4.673432c0.073801,0.073801 0.080931,0.370251 0,0.811808c-0.067842,0.370146 -0.359538,1.038311 -0.95941,2.140221c-0.363297,0.667345 -0.533432,1.275062 -0.664207,1.549816c-0.158587,0.333187 -0.38442,0.654307 -0.664207,1.107011c-0.312811,0.506138 -0.664207,0.95941 -0.811809,1.328413l0,0.073801" id="svg_8" fill-opacity="null" stroke-opacity="null" stroke-width="0" stroke="#000000" fill="none"/>
  <path d="m17.394835,8.806273c0,0.221402 -0.107836,0.52485 -0.295202,1.328413c-0.122004,0.523242 -0.221403,1.107011 -0.221403,1.328413l0,0.073801l0.073801,0" id="svg_9" fill-opacity="null" stroke-opacity="null" stroke-width="0" stroke="#000000" fill="none"/>
  <path d="m19.01845,3.345019c0,0.147602 -0.066576,0.577449 0.073801,0.664207c0.062778,0.038799 0.075956,0.117434 0.516605,0.073801c0.374479,-0.037081 0.678249,-0.212659 0.811808,-0.442804c0.08283,-0.14273 0.099815,-0.588377 -0.221401,-0.664207c-0.43096,-0.101736 -0.828245,-0.094171 -1.107012,0.147601c-0.394234,0.341917 -0.700827,0.731202 -0.738007,1.033211c-0.03607,0.292991 0.195387,0.588377 0.516605,0.664207c0.574612,0.135647 1.033211,0 1.328413,-0.221402l0.073801,-0.073801" id="svg_10" fill-opacity="null" stroke-opacity="null" stroke-width="0" stroke="#000000" fill="none"/>
  <rect id="svg_11" height="16.006919" width="4.42804" y="8.43727" x="22.26568" fill-opacity="null" stroke-opacity="null" stroke-width="0" stroke="#000000" fill="#a947ff"/>
 </g>
</svg>